<?xml version="1.0" encoding="utf-8" standalone="no"?>
<!DOCTYPE svg PUBLIC "-//W3C//DTD SVG 1.1//EN"
  "http://www.w3.org/Graphics/SVG/1.1/DTD/svg11.dtd">
<!-- Created with matplotlib (http://matplotlib.org/) -->
<svg height="345.6pt" version="1.1" viewBox="0 0 460.8 345.6" width="460.8pt" xmlns="http://www.w3.org/2000/svg" xmlns:xlink="http://www.w3.org/1999/xlink">
 <defs>
  <style type="text/css">
*{stroke-linecap:butt;stroke-linejoin:round;}
  </style>
 </defs>
 <g id="figure_1">
  <g id="patch_1">
   <path d="M 0 345.6 
L 460.8 345.6 
L 460.8 0 
L 0 0 
z
" style="fill:#ffffff;"/>
  </g>
  <g id="axes_1">
   <g id="patch_2">
    <path d="M 44.66 303.64 
L 403.63 303.64 
L 403.63 25.44 
L 44.66 25.44 
z
" style="fill:#ffffff;"/>
   </g>
   <g id="matplotlib.axis_1">
    <g id="xtick_1">
     <g id="line2d_1">
      <path clip-path="url(#pb57842cdb1)" d="M 88.501473 303.64 
L 88.501473 25.44 
" style="fill:none;stroke:#b0b0b0;stroke-linecap:square;stroke-width:0.8;"/>
     </g>
     <g id="line2d_2">
      <defs>
       <path d="M 0 0 
L 0 3.5 
" id="m625bf47683" style="stroke:#000000;stroke-width:0.8;"/>
      </defs>
      <g>
       <use style="stroke:#000000;stroke-width:0.8;" x="88.501473" xlink:href="#m625bf47683" y="303.64"/>
      </g>
     </g>
     <g id="text_1">
      <!-- 2021-12-31 -->
      <defs>
       <path d="M 19.1875 8.296875 
L 53.609375 8.296875 
L 53.609375 0 
L 7.328125 0 
L 7.328125 8.296875 
Q 12.9375 14.109375 22.625 23.890625 
Q 32.328125 33.6875 34.8125 36.53125 
Q 39.546875 41.84375 41.421875 45.53125 
Q 43.3125 49.21875 43.3125 52.78125 
Q 43.3125 58.59375 39.234375 62.25 
Q 35.15625 65.921875 28.609375 65.921875 
Q 23.96875 65.921875 18.8125 64.3125 
Q 13.671875 62.703125 7.8125 59.421875 
L 7.8125 69.390625 
Q 13.765625 71.78125 18.9375 73 
Q 24.125 74.21875 28.421875 74.21875 
Q 39.75 74.21875 46.484375 68.546875 
Q 53.21875 62.890625 53.21875 53.421875 
Q 53.21875 48.921875 51.53125 44.890625 
Q 49.859375 40.875 45.40625 35.40625 
Q 44.1875 33.984375 37.640625 27.21875 
Q 31.109375 20.453125 19.1875 8.296875 
z
" id="DejaVuSans-32"/>
       <path d="M 31.78125 66.40625 
Q 24.171875 66.40625 20.328125 58.90625 
Q 16.5 51.421875 16.5 36.375 
Q 16.5 21.390625 20.328125 13.890625 
Q 24.171875 6.390625 31.78125 6.390625 
Q 39.453125 6.390625 43.28125 13.890625 
Q 47.125 21.390625 47.125 36.375 
Q 47.125 51.421875 43.28125 58.90625 
Q 39.453125 66.40625 31.78125 66.40625 
z
M 31.78125 74.21875 
Q 44.046875 74.21875 50.515625 64.515625 
Q 56.984375 54.828125 56.984375 36.375 
Q 56.984375 17.96875 50.515625 8.265625 
Q 44.046875 -1.421875 31.78125 -1.421875 
Q 19.53125 -1.421875 13.0625 8.265625 
Q 6.59375 17.96875 6.59375 36.375 
Q 6.59375 54.828125 13.0625 64.515625 
Q 19.53125 74.21875 31.78125 74.21875 
z
" id="DejaVuSans-30"/>
       <path d="M 12.40625 8.296875 
L 28.515625 8.296875 
L 28.515625 63.921875 
L 10.984375 60.40625 
L 10.984375 69.390625 
L 28.421875 72.90625 
L 38.28125 72.90625 
L 38.28125 8.296875 
L 54.390625 8.296875 
L 54.390625 0 
L 12.40625 0 
z
" id="DejaVuSans-31"/>
       <path d="M 4.890625 31.390625 
L 31.203125 31.390625 
L 31.203125 23.390625 
L 4.890625 23.390625 
z
" id="DejaVuSans-2d"/>
       <path d="M 40.578125 39.3125 
Q 47.65625 37.796875 51.625 33 
Q 55.609375 28.21875 55.609375 21.1875 
Q 55.609375 10.40625 48.1875 4.484375 
Q 40.765625 -1.421875 27.09375 -1.421875 
Q 22.515625 -1.421875 17.65625 -0.515625 
Q 12.796875 0.390625 7.625 2.203125 
L 7.625 11.71875 
Q 11.71875 9.328125 16.59375 8.109375 
Q 21.484375 6.890625 26.8125 6.890625 
Q 36.078125 6.890625 40.9375 10.546875 
Q 45.796875 14.203125 45.796875 21.1875 
Q 45.796875 27.640625 41.28125 31.265625 
Q 36.765625 34.90625 28.71875 34.90625 
L 20.21875 34.90625 
L 20.21875 43.015625 
L 29.109375 43.015625 
Q 36.375 43.015625 40.234375 45.921875 
Q 44.09375 48.828125 44.09375 54.296875 
Q 44.09375 59.90625 40.109375 62.90625 
Q 36.140625 65.921875 28.71875 65.921875 
Q 24.65625 65.921875 20.015625 65.03125 
Q 15.375 64.15625 9.8125 62.3125 
L 9.8125 71.09375 
Q 15.4375 72.65625 20.34375 73.4375 
Q 25.25 74.21875 29.59375 74.21875 
Q 40.828125 74.21875 47.359375 69.109375 
Q 53.90625 64.015625 53.90625 55.328125 
Q 53.90625 49.265625 50.4375 45.09375 
Q 46.96875 40.921875 40.578125 39.3125 
z
" id="DejaVuSans-33"/>
      </defs>
      <g transform="translate(59.443661 318.238437)scale(0.1 -0.1)">
       <use xlink:href="#DejaVuSans-32"/>
       <use x="63.623047" xlink:href="#DejaVuSans-30"/>
       <use x="127.246094" xlink:href="#DejaVuSans-32"/>
       <use x="190.869141" xlink:href="#DejaVuSans-31"/>
       <use x="254.492188" xlink:href="#DejaVuSans-2d"/>
       <use x="290.576172" xlink:href="#DejaVuSans-31"/>
       <use x="354.199219" xlink:href="#DejaVuSans-32"/>
       <use x="417.822266" xlink:href="#DejaVuSans-2d"/>
       <use x="453.90625" xlink:href="#DejaVuSans-33"/>
       <use x="517.529297" xlink:href="#DejaVuSans-31"/>
      </g>
     </g>
    </g>
    <g id="xtick_2">
     <g id="line2d_3">
      <path clip-path="url(#pb57842cdb1)" d="M 154.895074 303.64 
L 154.895074 25.44 
" style="fill:none;stroke:#b0b0b0;stroke-linecap:square;stroke-width:0.8;"/>
     </g>
     <g id="line2d_4">
      <g>
       <use style="stroke:#000000;stroke-width:0.8;" x="154.895074" xlink:href="#m625bf47683" y="303.64"/>
      </g>
     </g>
     <g id="text_2">
      <!-- 2022-01-14 -->
      <defs>
       <path d="M 37.796875 64.3125 
L 12.890625 25.390625 
L 37.796875 25.390625 
z
M 35.203125 72.90625 
L 47.609375 72.90625 
L 47.609375 25.390625 
L 58.015625 25.390625 
L 58.015625 17.1875 
L 47.609375 17.1875 
L 47.609375 0 
L 37.796875 0 
L 37.796875 17.1875 
L 4.890625 17.1875 
L 4.890625 26.703125 
z
" id="DejaVuSans-34"/>
      </defs>
      <g transform="translate(125.837261 318.238437)scale(0.1 -0.1)">
       <use xlink:href="#DejaVuSans-32"/>
       <use x="63.623047" xlink:href="#DejaVuSans-30"/>
       <use x="127.246094" xlink:href="#DejaVuSans-32"/>
       <use x="190.869141" xlink:href="#DejaVuSans-32"/>
       <use x="254.492188" xlink:href="#DejaVuSans-2d"/>
       <use x="290.576172" xlink:href="#DejaVuSans-30"/>
       <use x="354.199219" xlink:href="#DejaVuSans-31"/>
       <use x="417.822266" xlink:href="#DejaVuSans-2d"/>
       <use x="453.90625" xlink:href="#DejaVuSans-31"/>
       <use x="517.529297" xlink:href="#DejaVuSans-34"/>
      </g>
     </g>
    </g>
    <g id="xtick_3">
     <g id="line2d_5">
      <path clip-path="url(#pb57842cdb1)" d="M 221.288674 303.64 
L 221.288674 25.44 
" style="fill:none;stroke:#b0b0b0;stroke-linecap:square;stroke-width:0.8;"/>
     </g>
     <g id="line2d_6">
      <g>
       <use style="stroke:#000000;stroke-width:0.8;" x="221.288674" xlink:href="#m625bf47683" y="303.64"/>
      </g>
     </g>
     <g id="text_3">
      <!-- 2022-01-28 -->
      <defs>
       <path d="M 31.78125 34.625 
Q 24.75 34.625 20.71875 30.859375 
Q 16.703125 27.09375 16.703125 20.515625 
Q 16.703125 13.921875 20.71875 10.15625 
Q 24.75 6.390625 31.78125 6.390625 
Q 38.8125 6.390625 42.859375 10.171875 
Q 46.921875 13.96875 46.921875 20.515625 
Q 46.921875 27.09375 42.890625 30.859375 
Q 38.875 34.625 31.78125 34.625 
z
M 21.921875 38.8125 
Q 15.578125 40.375 12.03125 44.71875 
Q 8.5 49.078125 8.5 55.328125 
Q 8.5 64.0625 14.71875 69.140625 
Q 20.953125 74.21875 31.78125 74.21875 
Q 42.671875 74.21875 48.875 69.140625 
Q 55.078125 64.0625 55.078125 55.328125 
Q 55.078125 49.078125 51.53125 44.71875 
Q 48 40.375 41.703125 38.8125 
Q 48.828125 37.15625 52.796875 32.3125 
Q 56.78125 27.484375 56.78125 20.515625 
Q 56.78125 9.90625 50.3125 4.234375 
Q 43.84375 -1.421875 31.78125 -1.421875 
Q 19.734375 -1.421875 13.25 4.234375 
Q 6.78125 9.90625 6.78125 20.515625 
Q 6.78125 27.484375 10.78125 32.3125 
Q 14.796875 37.15625 21.921875 38.8125 
z
M 18.3125 54.390625 
Q 18.3125 48.734375 21.84375 45.5625 
Q 25.390625 42.390625 31.78125 42.390625 
Q 38.140625 42.390625 41.71875 45.5625 
Q 45.3125 48.734375 45.3125 54.390625 
Q 45.3125 60.0625 41.71875 63.234375 
Q 38.140625 66.40625 31.78125 66.40625 
Q 25.390625 66.40625 21.84375 63.234375 
Q 18.3125 60.0625 18.3125 54.390625 
z
" id="DejaVuSans-38"/>
      </defs>
      <g transform="translate(192.230861 318.238437)scale(0.1 -0.1)">
       <use xlink:href="#DejaVuSans-32"/>
       <use x="63.623047" xlink:href="#DejaVuSans-30"/>
       <use x="127.246094" xlink:href="#DejaVuSans-32"/>
       <use x="190.869141" xlink:href="#DejaVuSans-32"/>
       <use x="254.492188" xlink:href="#DejaVuSans-2d"/>
       <use x="290.576172" xlink:href="#DejaVuSans-30"/>
       <use x="354.199219" xlink:href="#DejaVuSans-31"/>
       <use x="417.822266" xlink:href="#DejaVuSans-2d"/>
       <use x="453.90625" xlink:href="#DejaVuSans-32"/>
       <use x="517.529297" xlink:href="#DejaVuSans-38"/>
      </g>
     </g>
    </g>
    <g id="xtick_4">
     <g id="line2d_7">
      <path clip-path="url(#pb57842cdb1)" d="M 287.682274 303.64 
L 287.682274 25.44 
" style="fill:none;stroke:#b0b0b0;stroke-linecap:square;stroke-width:0.8;"/>
     </g>
     <g id="line2d_8">
      <g>
       <use style="stroke:#000000;stroke-width:0.8;" x="287.682274" xlink:href="#m625bf47683" y="303.64"/>
      </g>
     </g>
     <g id="text_4">
      <!-- 2022-02-11 -->
      <g transform="translate(258.624461 318.238437)scale(0.1 -0.1)">
       <use xlink:href="#DejaVuSans-32"/>
       <use x="63.623047" xlink:href="#DejaVuSans-30"/>
       <use x="127.246094" xlink:href="#DejaVuSans-32"/>
       <use x="190.869141" xlink:href="#DejaVuSans-32"/>
       <use x="254.492188" xlink:href="#DejaVuSans-2d"/>
       <use x="290.576172" xlink:href="#DejaVuSans-30"/>
       <use x="354.199219" xlink:href="#DejaVuSans-32"/>
       <use x="417.822266" xlink:href="#DejaVuSans-2d"/>
       <use x="453.90625" xlink:href="#DejaVuSans-31"/>
       <use x="517.529297" xlink:href="#DejaVuSans-31"/>
      </g>
     </g>
    </g>
    <g id="xtick_5">
     <g id="line2d_9">
      <path clip-path="url(#pb57842cdb1)" d="M 354.075874 303.64 
L 354.075874 25.44 
" style="fill:none;stroke:#b0b0b0;stroke-linecap:square;stroke-width:0.8;"/>
     </g>
     <g id="line2d_10">
      <g>
       <use style="stroke:#000000;stroke-width:0.8;" x="354.075874" xlink:href="#m625bf47683" y="303.64"/>
      </g>
     </g>
     <g id="text_5">
      <!-- 2022-02-25 -->
      <defs>
       <path d="M 10.796875 72.90625 
L 49.515625 72.90625 
L 49.515625 64.59375 
L 19.828125 64.59375 
L 19.828125 46.734375 
Q 21.96875 47.46875 24.109375 47.828125 
Q 26.265625 48.1875 28.421875 48.1875 
Q 40.625 48.1875 47.75 41.5 
Q 54.890625 34.8125 54.890625 23.390625 
Q 54.890625 11.625 47.5625 5.09375 
Q 40.234375 -1.421875 26.90625 -1.421875 
Q 22.3125 -1.421875 17.546875 -0.640625 
Q 12.796875 0.140625 7.71875 1.703125 
L 7.71875 11.625 
Q 12.109375 9.234375 16.796875 8.0625 
Q 21.484375 6.890625 26.703125 6.890625 
Q 35.15625 6.890625 40.078125 11.328125 
Q 45.015625 15.765625 45.015625 23.390625 
Q 45.015625 31 40.078125 35.4375 
Q 35.15625 39.890625 26.703125 39.890625 
Q 22.75 39.890625 18.8125 39.015625 
Q 14.890625 38.140625 10.796875 36.28125 
z
" id="DejaVuSans-35"/>
      </defs>
      <g transform="translate(325.018061 318.238437)scale(0.1 -0.1)">
       <use xlink:href="#DejaVuSans-32"/>
       <use x="63.623047" xlink:href="#DejaVuSans-30"/>
       <use x="127.246094" xlink:href="#DejaVuSans-32"/>
       <use x="190.869141" xlink:href="#DejaVuSans-32"/>
       <use x="254.492188" xlink:href="#DejaVuSans-2d"/>
       <use x="290.576172" xlink:href="#DejaVuSans-30"/>
       <use x="354.199219" xlink:href="#DejaVuSans-32"/>
       <use x="417.822266" xlink:href="#DejaVuSans-2d"/>
       <use x="453.90625" xlink:href="#DejaVuSans-32"/>
       <use x="517.529297" xlink:href="#DejaVuSans-35"/>
      </g>
     </g>
    </g>
    <g id="text_6">
     <!-- Date -->
     <defs>
      <path d="M 19.671875 64.796875 
L 19.671875 8.109375 
L 31.59375 8.109375 
Q 46.6875 8.109375 53.6875 14.9375 
Q 60.6875 21.78125 60.6875 36.53125 
Q 60.6875 51.171875 53.6875 57.984375 
Q 46.6875 64.796875 31.59375 64.796875 
z
M 9.8125 72.90625 
L 30.078125 72.90625 
Q 51.265625 72.90625 61.171875 64.09375 
Q 71.09375 55.28125 71.09375 36.53125 
Q 71.09375 17.671875 61.125 8.828125 
Q 51.171875 0 30.078125 0 
L 9.8125 0 
z
" id="DejaVuSans-44"/>
      <path d="M 34.28125 27.484375 
Q 23.390625 27.484375 19.1875 25 
Q 14.984375 22.515625 14.984375 16.5 
Q 14.984375 11.71875 18.140625 8.90625 
Q 21.296875 6.109375 26.703125 6.109375 
Q 34.1875 6.109375 38.703125 11.40625 
Q 43.21875 16.703125 43.21875 25.484375 
L 43.21875 27.484375 
z
M 52.203125 31.203125 
L 52.203125 0 
L 43.21875 0 
L 43.21875 8.296875 
Q 40.140625 3.328125 35.546875 0.953125 
Q 30.953125 -1.421875 24.3125 -1.421875 
Q 15.921875 -1.421875 10.953125 3.296875 
Q 6 8.015625 6 15.921875 
Q 6 25.140625 12.171875 29.828125 
Q 18.359375 34.515625 30.609375 34.515625 
L 43.21875 34.515625 
L 43.21875 35.40625 
Q 43.21875 41.609375 39.140625 45 
Q 35.0625 48.390625 27.6875 48.390625 
Q 23 48.390625 18.546875 47.265625 
Q 14.109375 46.140625 10.015625 43.890625 
L 10.015625 52.203125 
Q 14.9375 54.109375 19.578125 55.046875 
Q 24.21875 56 28.609375 56 
Q 40.484375 56 46.34375 49.84375 
Q 52.203125 43.703125 52.203125 31.203125 
z
" id="DejaVuSans-61"/>
      <path d="M 18.3125 70.21875 
L 18.3125 54.6875 
L 36.8125 54.6875 
L 36.8125 47.703125 
L 18.3125 47.703125 
L 18.3125 18.015625 
Q 18.3125 11.328125 20.140625 9.421875 
Q 21.96875 7.515625 27.59375 7.515625 
L 36.8125 7.515625 
L 36.8125 0 
L 27.59375 0 
Q 17.1875 0 13.234375 3.875 
Q 9.28125 7.765625 9.28125 18.015625 
L 9.28125 47.703125 
L 2.6875 47.703125 
L 2.6875 54.6875 
L 9.28125 54.6875 
L 9.28125 70.21875 
z
" id="DejaVuSans-74"/>
      <path d="M 56.203125 29.59375 
L 56.203125 25.203125 
L 14.890625 25.203125 
Q 15.484375 15.921875 20.484375 11.0625 
Q 25.484375 6.203125 34.421875 6.203125 
Q 39.59375 6.203125 44.453125 7.46875 
Q 49.3125 8.734375 54.109375 11.28125 
L 54.109375 2.78125 
Q 49.265625 0.734375 44.1875 -0.34375 
Q 39.109375 -1.421875 33.890625 -1.421875 
Q 20.796875 -1.421875 13.15625 6.1875 
Q 5.515625 13.8125 5.515625 26.8125 
Q 5.515625 40.234375 12.765625 48.109375 
Q 20.015625 56 32.328125 56 
Q 43.359375 56 49.78125 48.890625 
Q 56.203125 41.796875 56.203125 29.59375 
z
M 47.21875 32.234375 
Q 47.125 39.59375 43.09375 43.984375 
Q 39.0625 48.390625 32.421875 48.390625 
Q 24.90625 48.390625 20.390625 44.140625 
Q 15.875 39.890625 15.1875 32.171875 
z
" id="DejaVuSans-65"/>
     </defs>
     <g transform="translate(212.194219 331.916562)scale(0.1 -0.1)">
      <use xlink:href="#DejaVuSans-44"/>
      <use x="77.001953" xlink:href="#DejaVuSans-61"/>
      <use x="138.28125" xlink:href="#DejaVuSans-74"/>
      <use x="177.490234" xlink:href="#DejaVuSans-65"/>
     </g>
    </g>
   </g>
   <g id="matplotlib.axis_2">
    <g id="ytick_1">
     <g id="line2d_11">
      <path clip-path="url(#pb57842cdb1)" d="M 44.66 303.64 
L 403.63 303.64 
" style="fill:none;stroke:#b0b0b0;stroke-linecap:square;stroke-width:0.8;"/>
     </g>
     <g id="line2d_12">
      <defs>
       <path d="M 0 0 
L -3.5 0 
" id="m0e24bb0206" style="stroke:#000000;stroke-width:0.8;"/>
      </defs>
      <g>
       <use style="stroke:#000000;stroke-width:0.8;" x="44.66" xlink:href="#m0e24bb0206" y="303.64"/>
      </g>
     </g>
     <g id="text_7">
      <!-- 0 -->
      <g transform="translate(31.2975 307.439219)scale(0.1 -0.1)">
       <use xlink:href="#DejaVuSans-30"/>
      </g>
     </g>
    </g>
    <g id="ytick_2">
     <g id="line2d_13">
      <path clip-path="url(#pb57842cdb1)" d="M 44.66 244.359672 
L 403.63 244.359672 
" style="fill:none;stroke:#b0b0b0;stroke-linecap:square;stroke-width:0.8;"/>
     </g>
     <g id="line2d_14">
      <g>
       <use style="stroke:#000000;stroke-width:0.8;" x="44.66" xlink:href="#m0e24bb0206" y="244.359672"/>
      </g>
     </g>
     <g id="text_8">
      <!-- 5 -->
      <g transform="translate(31.2975 248.158891)scale(0.1 -0.1)">
       <use xlink:href="#DejaVuSans-35"/>
      </g>
     </g>
    </g>
    <g id="ytick_3">
     <g id="line2d_15">
      <path clip-path="url(#pb57842cdb1)" d="M 44.66 185.079344 
L 403.63 185.079344 
" style="fill:none;stroke:#b0b0b0;stroke-linecap:square;stroke-width:0.8;"/>
     </g>
     <g id="line2d_16">
      <g>
       <use style="stroke:#000000;stroke-width:0.8;" x="44.66" xlink:href="#m0e24bb0206" y="185.079344"/>
      </g>
     </g>
     <g id="text_9">
      <!-- 10 -->
      <g transform="translate(24.935 188.878563)scale(0.1 -0.1)">
       <use xlink:href="#DejaVuSans-31"/>
       <use x="63.623047" xlink:href="#DejaVuSans-30"/>
      </g>
     </g>
    </g>
    <g id="ytick_4">
     <g id="line2d_17">
      <path clip-path="url(#pb57842cdb1)" d="M 44.66 125.799016 
L 403.63 125.799016 
" style="fill:none;stroke:#b0b0b0;stroke-linecap:square;stroke-width:0.8;"/>
     </g>
     <g id="line2d_18">
      <g>
       <use style="stroke:#000000;stroke-width:0.8;" x="44.66" xlink:href="#m0e24bb0206" y="125.799016"/>
      </g>
     </g>
     <g id="text_10">
      <!-- 15 -->
      <g transform="translate(24.935 129.598234)scale(0.1 -0.1)">
       <use xlink:href="#DejaVuSans-31"/>
       <use x="63.623047" xlink:href="#DejaVuSans-35"/>
      </g>
     </g>
    </g>
    <g id="ytick_5">
     <g id="line2d_19">
      <path clip-path="url(#pb57842cdb1)" d="M 44.66 66.518688 
L 403.63 66.518688 
" style="fill:none;stroke:#b0b0b0;stroke-linecap:square;stroke-width:0.8;"/>
     </g>
     <g id="line2d_20">
      <g>
       <use style="stroke:#000000;stroke-width:0.8;" x="44.66" xlink:href="#m0e24bb0206" y="66.518688"/>
      </g>
     </g>
     <g id="text_11">
      <!-- 20 -->
      <g transform="translate(24.935 70.317906)scale(0.1 -0.1)">
       <use xlink:href="#DejaVuSans-32"/>
       <use x="63.623047" xlink:href="#DejaVuSans-30"/>
      </g>
     </g>
    </g>
    <g id="text_12">
     <!-- Active time, days -->
     <defs>
      <path d="M 34.1875 63.1875 
L 20.796875 26.90625 
L 47.609375 26.90625 
z
M 28.609375 72.90625 
L 39.796875 72.90625 
L 67.578125 0 
L 57.328125 0 
L 50.6875 18.703125 
L 17.828125 18.703125 
L 11.1875 0 
L 0.78125 0 
z
" id="DejaVuSans-41"/>
      <path d="M 48.78125 52.59375 
L 48.78125 44.1875 
Q 44.96875 46.296875 41.140625 47.34375 
Q 37.3125 48.390625 33.40625 48.390625 
Q 24.65625 48.390625 19.8125 42.84375 
Q 14.984375 37.3125 14.984375 27.296875 
Q 14.984375 17.28125 19.8125 11.734375 
Q 24.65625 6.203125 33.40625 6.203125 
Q 37.3125 6.203125 41.140625 7.25 
Q 44.96875 8.296875 48.78125 10.40625 
L 48.78125 2.09375 
Q 45.015625 0.34375 40.984375 -0.53125 
Q 36.96875 -1.421875 32.421875 -1.421875 
Q 20.0625 -1.421875 12.78125 6.34375 
Q 5.515625 14.109375 5.515625 27.296875 
Q 5.515625 40.671875 12.859375 48.328125 
Q 20.21875 56 33.015625 56 
Q 37.15625 56 41.109375 55.140625 
Q 45.0625 54.296875 48.78125 52.59375 
z
" id="DejaVuSans-63"/>
      <path d="M 9.421875 54.6875 
L 18.40625 54.6875 
L 18.40625 0 
L 9.421875 0 
z
M 9.421875 75.984375 
L 18.40625 75.984375 
L 18.40625 64.59375 
L 9.421875 64.59375 
z
" id="DejaVuSans-69"/>
      <path d="M 2.984375 54.6875 
L 12.5 54.6875 
L 29.59375 8.796875 
L 46.6875 54.6875 
L 56.203125 54.6875 
L 35.6875 0 
L 23.484375 0 
z
" id="DejaVuSans-76"/>
      <path id="DejaVuSans-20"/>
      <path d="M 52 44.1875 
Q 55.375 50.25 60.0625 53.125 
Q 64.75 56 71.09375 56 
Q 79.640625 56 84.28125 50.015625 
Q 88.921875 44.046875 88.921875 33.015625 
L 88.921875 0 
L 79.890625 0 
L 79.890625 32.71875 
Q 79.890625 40.578125 77.09375 44.375 
Q 74.3125 48.1875 68.609375 48.1875 
Q 61.625 48.1875 57.5625 43.546875 
Q 53.515625 38.921875 53.515625 30.90625 
L 53.515625 0 
L 44.484375 0 
L 44.484375 32.71875 
Q 44.484375 40.625 41.703125 44.40625 
Q 38.921875 48.1875 33.109375 48.1875 
Q 26.21875 48.1875 22.15625 43.53125 
Q 18.109375 38.875 18.109375 30.90625 
L 18.109375 0 
L 9.078125 0 
L 9.078125 54.6875 
L 18.109375 54.6875 
L 18.109375 46.1875 
Q 21.1875 51.21875 25.484375 53.609375 
Q 29.78125 56 35.6875 56 
Q 41.65625 56 45.828125 52.96875 
Q 50 49.953125 52 44.1875 
z
" id="DejaVuSans-6d"/>
      <path d="M 11.71875 12.40625 
L 22.015625 12.40625 
L 22.015625 4 
L 14.015625 -11.625 
L 7.71875 -11.625 
L 11.71875 4 
z
" id="DejaVuSans-2c"/>
      <path d="M 45.40625 46.390625 
L 45.40625 75.984375 
L 54.390625 75.984375 
L 54.390625 0 
L 45.40625 0 
L 45.40625 8.203125 
Q 42.578125 3.328125 38.25 0.953125 
Q 33.9375 -1.421875 27.875 -1.421875 
Q 17.96875 -1.421875 11.734375 6.484375 
Q 5.515625 14.40625 5.515625 27.296875 
Q 5.515625 40.1875 11.734375 48.09375 
Q 17.96875 56 27.875 56 
Q 33.9375 56 38.25 53.625 
Q 42.578125 51.265625 45.40625 46.390625 
z
M 14.796875 27.296875 
Q 14.796875 17.390625 18.875 11.75 
Q 22.953125 6.109375 30.078125 6.109375 
Q 37.203125 6.109375 41.296875 11.75 
Q 45.40625 17.390625 45.40625 27.296875 
Q 45.40625 37.203125 41.296875 42.84375 
Q 37.203125 48.484375 30.078125 48.484375 
Q 22.953125 48.484375 18.875 42.84375 
Q 14.796875 37.203125 14.796875 27.296875 
z
" id="DejaVuSans-64"/>
      <path d="M 32.171875 -5.078125 
Q 28.375 -14.84375 24.75 -17.8125 
Q 21.140625 -20.796875 15.09375 -20.796875 
L 7.90625 -20.796875 
L 7.90625 -13.28125 
L 13.1875 -13.28125 
Q 16.890625 -13.28125 18.9375 -11.515625 
Q 21 -9.765625 23.484375 -3.21875 
L 25.09375 0.875 
L 2.984375 54.6875 
L 12.5 54.6875 
L 29.59375 11.921875 
L 46.6875 54.6875 
L 56.203125 54.6875 
z
" id="DejaVuSans-79"/>
      <path d="M 44.28125 53.078125 
L 44.28125 44.578125 
Q 40.484375 46.53125 36.375 47.5 
Q 32.28125 48.484375 27.875 48.484375 
Q 21.1875 48.484375 17.84375 46.4375 
Q 14.5 44.390625 14.5 40.28125 
Q 14.5 37.15625 16.890625 35.375 
Q 19.28125 33.59375 26.515625 31.984375 
L 29.59375 31.296875 
Q 39.15625 29.25 43.1875 25.515625 
Q 47.21875 21.78125 47.21875 15.09375 
Q 47.21875 7.46875 41.1875 3.015625 
Q 35.15625 -1.421875 24.609375 -1.421875 
Q 20.21875 -1.421875 15.453125 -0.5625 
Q 10.6875 0.296875 5.421875 2 
L 5.421875 11.28125 
Q 10.40625 8.6875 15.234375 7.390625 
Q 20.0625 6.109375 24.8125 6.109375 
Q 31.15625 6.109375 34.5625 8.28125 
Q 37.984375 10.453125 37.984375 14.40625 
Q 37.984375 18.0625 35.515625 20.015625 
Q 33.0625 21.96875 24.703125 23.78125 
L 21.578125 24.515625 
Q 13.234375 26.265625 9.515625 29.90625 
Q 5.8125 33.546875 5.8125 39.890625 
Q 5.8125 47.609375 11.28125 51.796875 
Q 16.75 56 26.8125 56 
Q 31.78125 56 36.171875 55.265625 
Q 40.578125 54.546875 44.28125 53.078125 
z
" id="DejaVuSans-73"/>
     </defs>
     <g transform="translate(18.855313 207.959531)rotate(-90)scale(0.1 -0.1)">
      <use xlink:href="#DejaVuSans-41"/>
      <use x="68.392578" xlink:href="#DejaVuSans-63"/>
      <use x="123.373047" xlink:href="#DejaVuSans-74"/>
      <use x="162.582031" xlink:href="#DejaVuSans-69"/>
      <use x="190.365234" xlink:href="#DejaVuSans-76"/>
      <use x="249.544922" xlink:href="#DejaVuSans-65"/>
      <use x="311.068359" xlink:href="#DejaVuSans-20"/>
      <use x="342.855469" xlink:href="#DejaVuSans-74"/>
      <use x="382.064453" xlink:href="#DejaVuSans-69"/>
      <use x="409.847656" xlink:href="#DejaVuSans-6d"/>
      <use x="507.259766" xlink:href="#DejaVuSans-65"/>
      <use x="568.783203" xlink:href="#DejaVuSans-2c"/>
      <use x="600.570312" xlink:href="#DejaVuSans-20"/>
      <use x="632.357422" xlink:href="#DejaVuSans-64"/>
      <use x="695.833984" xlink:href="#DejaVuSans-61"/>
      <use x="757.113281" xlink:href="#DejaVuSans-79"/>
      <use x="816.292969" xlink:href="#DejaVuSans-73"/>
     </g>
    </g>
   </g>
   <g id="line2d_21">
    <path clip-path="url(#pb57842cdb1)" d="M 60.976818 303.64 
L 60.977082 303.639451 
L 74.462716 303.633825 
L 74.660318 303.139822 
L 75.680096 303.139822 
L 75.778903 302.892821 
L 79.192012 302.892821 
L 79.48803 302.412266 
L 79.548964 302.412266 
L 79.644852 302.172675 
L 80.313709 302.170067 
L 80.412509 301.923203 
L 117.030389 301.840869 
L 117.123009 301.676476 
L 117.433205 301.676476 
L 119.079872 297.559787 
L 141.450311 297.483491 
L 141.612973 297.235941 
L 152.111537 297.128907 
L 152.144481 297.046573 
L 152.482442 296.964239 
L 152.515375 296.882043 
L 155.272156 296.799709 
L 155.28863 296.758542 
L 156.192673 296.658781 
L 156.647023 295.650192 
L 157.142262 295.609162 
L 159.034695 291.163138 
L 159.064441 291.163138 
L 160.250722 288.205296 
L 160.390612 288.205296 
L 161.691955 285.035583 
L 161.960558 285.035583 
L 162.553359 283.553574 
L 162.772069 283.553574 
L 163.345253 282.120692 
L 163.937422 282.079525 
L 164.126314 281.607341 
L 164.449744 281.607341 
L 165.249415 279.63133 
L 165.379337 279.63133 
L 166.234011 277.669453 
L 166.57057 277.669453 
L 167.416979 275.693442 
L 167.510124 275.693442 
L 167.878249 274.773225 
L 168.383826 274.773225 
L 169.185987 272.797214 
L 170.389631 272.797214 
L 172.45238 267.859519 
L 174.556318 267.789535 
L 177.005271 261.862326 
L 191.622395 261.775876 
L 191.873718 261.189247 
L 192.153034 261.189247 
L 192.611773 260.145804 
L 195.766749 260.145804 
L 196.564393 258.309349 
L 196.758656 258.309349 
L 196.882745 257.999225 
L 197.985229 257.999225 
L 198.034635 257.875724 
L 198.526204 257.875724 
L 198.582892 257.73411 
L 201.114707 257.723406 
L 201.594731 256.812932 
L 201.635257 256.812932 
L 201.75474 256.514335 
L 201.943611 256.514335 
L 202.024023 256.31344 
L 202.29327 256.237968 
L 202.652062 255.480634 
L 203.008638 255.480634 
L 203.783414 253.729532 
L 203.851799 253.729532 
L 204.079794 253.159644 
L 204.572302 253.122183 
L 205.038312 252.089991 
L 206.687999 252.089991 
L 207.021267 251.461236 
L 207.390827 251.461236 
L 207.440236 251.337735 
L 207.571096 251.337735 
L 208.126647 250.225817 
L 208.200009 250.225817 
L 208.623282 249.24481 
L 208.777474 249.24481 
L 209.329719 248.142361 
L 209.464417 248.142361 
L 209.768038 247.521564 
L 210.421247 247.519505 
L 211.168801 245.757288 
L 211.465219 245.757288 
L 211.695492 245.181638 
L 212.442382 245.181638 
L 212.491783 245.058137 
L 218.899786 245.058137 
L 218.949186 244.934636 
L 223.240798 244.934636 
L 223.290201 244.811136 
L 228.031991 244.811136 
L 228.081391 244.687635 
L 232.885018 244.687635 
L 232.932113 244.569898 
L 237.493795 244.569898 
L 237.543209 244.446397 
L 241.918139 244.446397 
L 241.967546 244.322896 
L 246.898484 244.322896 
L 246.947901 244.199395 
L 274.982973 244.092499 
L 275.004937 244.03761 
L 275.398493 243.941553 
L 275.470683 243.859631 
L 275.660694 243.845909 
L 276.936918 240.881893 
L 278.543196 240.881893 
L 279.437232 238.905882 
L 279.81395 238.905882 
L 280.185827 238.259287 
L 285.762999 238.176953 
L 286.201334 237.354027 
L 286.307197 237.31437 
L 286.999144 235.832361 
L 287.08472 235.832361 
L 287.479921 234.844356 
L 288.104436 234.844356 
L 288.243504 234.49677 
L 288.512846 234.49677 
L 288.572735 234.34706 
L 288.888754 234.326065 
L 288.968795 234.125994 
L 289.319125 234.125994 
L 289.455789 233.9369 
L 290.657518 233.849764 
L 290.882253 233.416414 
L 291.133464 233.38348 
L 291.29738 232.973732 
L 294.487452 232.973732 
L 295.770364 230.062547 
L 295.780826 230.062547 
L 296.580319 228.23405 
L 296.82626 228.23405 
L 297.60607 226.348195 
L 298.021291 226.348195 
L 298.656864 224.75929 
L 298.803987 224.75929 
L 300.060744 221.902308 
L 300.199061 221.882685 
L 301.268407 219.357096 
L 301.406423 219.357096 
L 302.296045 217.20393 
L 302.417686 217.20393 
L 302.921299 215.944909 
L 303.116042 215.944909 
L 305.108199 211.027524 
L 305.206632 211.027524 
L 307.30452 206.055798 
L 307.328444 206.055798 
L 309.615655 200.621905 
L 309.627121 200.621905 
L 310.476582 198.770767 
L 310.639882 198.770767 
L 311.035085 197.782761 
L 311.158485 197.782761 
L 312.943035 193.604322 
L 312.969919 193.604322 
L 313.330832 192.70208 
L 313.857627 192.682046 
L 314.252827 191.69404 
L 314.894743 191.69404 
L 315.146553 191.272629 
L 315.664371 191.163674 
L 316.229144 189.928804 
L 316.487255 189.928804 
L 317.552952 187.430522 
L 317.76957 187.430522 
L 318.598007 185.454649 
L 318.718203 185.454649 
L 319.205486 184.360707 
L 319.392896 184.360707 
L 319.788098 183.372702 
L 320.039449 183.372702 
L 320.385623 182.507373 
L 320.63316 182.507373 
L 320.830779 182.013371 
L 321.400942 181.945583 
L 324.251016 175.029544 
L 324.346686 174.997709 
L 326.830973 169.032351 
L 326.907853 168.975952 
L 328.134746 165.940717 
L 328.601495 165.913822 
L 329.749135 163.240032 
L 329.845201 163.240032 
L 331.459995 159.273602 
L 331.660228 159.273602 
L 331.789482 158.950579 
L 332.29327 158.950579 
L 332.490873 158.456576 
L 333.048282 158.456576 
L 334.488146 155.128919 
L 334.536289 155.128919 
L 336.108718 151.321804 
L 336.209706 151.321804 
L 336.88803 149.911426 
L 337.098247 149.911426 
L 337.842056 148.257615 
L 337.90066 148.257615 
L 338.328025 147.323675 
L 338.455345 147.285939 
L 341.988995 138.648164 
L 342.124615 138.612623 
L 344.234417 133.498186 
L 344.399063 133.498186 
L 345.081616 131.791818 
L 347.195097 131.791818 
L 347.46347 131.135617 
L 347.601757 131.135617 
L 349.945375 125.548995 
L 350.102427 125.466662 
L 350.393402 125.036193 
L 350.486039 124.949468 
L 350.704157 124.693136 
L 350.709697 124.693136 
L 351.776236 122.323432 
L 351.812763 122.323432 
L 352.604246 120.632022 
L 352.63159 120.617064 
L 355.498665 113.7013 
L 355.549643 113.69046 
L 357.644464 108.701307 
L 357.690694 108.701307 
L 360.196873 102.513236 
L 360.46955 102.430902 
L 361.549111 99.980649 
L 361.671225 99.980649 
L 362.624529 97.857809 
L 362.839081 97.769026 
L 365.169226 92.170328 
L 365.315524 92.087995 
L 366.432761 89.380997 
L 366.607737 89.311425 
L 368.509419 84.788555 
L 368.592968 84.776617 
L 370.217979 81.008611 
L 370.266693 80.926277 
L 370.689637 80.141911 
L 370.72516 80.141911 
L 371.695446 77.956086 
L 371.730782 77.956086 
L 373.358547 74.116587 
L 373.432058 74.116587 
L 375.053338 70.295476 
L 375.382437 70.213142 
L 376.736266 66.941746 
L 377.068164 66.856668 
L 378.194752 64.296087 
L 378.212569 64.296087 
L 378.809067 63.103482 
L 378.935348 63.032812 
L 381.84153 56.008093 
L 381.964122 55.922329 
L 383.182838 52.932377 
L 383.404906 52.861982 
L 383.606598 52.619921 
L 384.039433 52.542115 
L 384.632234 51.060107 
L 385.323849 50.97791 
L 385.42265 50.730909 
L 385.42265 50.730909 
" style="fill:none;stroke:#1f77b4;stroke-linecap:square;stroke-width:1.5;"/>
   </g>
   <g id="line2d_22">
    <path clip-path="url(#pb57842cdb1)" d="M 156.192673 303.64 
L 156.647023 302.631411 
L 157.142262 302.590381 
L 159.034695 298.144357 
L 159.064441 298.144357 
L 160.250722 295.186515 
L 160.390612 295.186515 
L 161.691955 292.016802 
L 161.960558 292.016802 
L 162.553359 290.534794 
L 162.772069 290.534794 
L 163.345253 289.101911 
L 163.937422 289.060744 
L 164.126314 288.58856 
L 164.449744 288.58856 
L 165.249415 286.612549 
L 165.379337 286.612549 
L 166.234011 284.650672 
L 166.57057 284.650672 
L 167.416979 282.674661 
L 167.510124 282.674661 
L 167.878249 281.754444 
L 168.383826 281.754444 
L 169.185987 279.778433 
L 170.389631 279.778433 
L 172.45238 274.840738 
L 174.556318 274.770755 
L 177.005271 268.843545 
L 275.462303 268.734316 
L 275.470683 268.713458 
L 275.660694 268.699736 
L 276.936918 265.735719 
L 278.543196 265.735719 
L 279.437232 263.759708 
L 285.762999 263.677374 
L 285.9606 263.183372 
L 286.603943 263.183372 
L 287.479921 261.207361 
L 288.104436 261.207361 
L 288.243504 260.859775 
L 288.512846 260.859775 
L 288.572735 260.710065 
L 288.888754 260.689069 
L 288.968795 260.488998 
L 289.319125 260.488998 
L 289.455789 260.299905 
L 291.133464 260.258875 
L 291.29738 259.849128 
L 294.487452 259.849128 
L 295.293557 257.873117 
L 303.116042 257.873117 
L 304.934825 253.326233 
L 305.206632 253.326233 
L 307.30452 248.354507 
L 307.328444 248.354507 
L 309.362555 243.414617 
L 310.081381 243.414617 
L 310.476582 242.426612 
L 310.639882 242.426612 
L 311.035085 241.438606 
L 311.158485 241.438606 
L 312.943035 237.260166 
L 312.969919 237.260166 
L 313.330832 236.357925 
L 313.857627 236.337891 
L 314.252827 235.349885 
L 315.566906 235.242303 
L 316.059571 234.201878 
L 316.130343 234.201878 
L 316.229144 233.954877 
L 316.703229 233.954877 
L 317.552952 231.950598 
L 317.76957 231.950598 
L 318.598007 229.974724 
L 318.718203 229.974724 
L 319.205486 228.880782 
L 319.392896 228.880782 
L 319.788098 227.892777 
L 320.039449 227.892777 
L 320.385623 227.027449 
L 321.400942 226.959661 
L 324.251016 220.043622 
L 324.346686 220.011787 
L 325.279115 217.68078 
L 325.645373 217.627949 
L 328.134746 211.572299 
L 330.274394 211.55789 
L 331.459995 208.593874 
L 331.660228 208.593874 
L 331.789482 208.270851 
L 334.923117 208.270851 
L 336.576296 204.39046 
L 338.455345 204.352723 
L 339.44046 201.889982 
L 339.590894 201.889982 
L 341.988995 195.96195 
L 342.124615 195.96195 
L 342.66369 194.614283 
L 343.180755 194.614283 
L 344.234417 191.98015 
L 344.399063 191.98015 
L 345.081616 190.273783 
L 347.601757 190.273783 
L 349.945375 184.687161 
L 351.066105 184.687161 
L 351.353807 183.967975 
L 351.812763 183.967975 
L 352.604246 182.276564 
L 352.63159 182.261607 
L 355.498665 175.345843 
L 355.549643 175.335003 
L 356.457967 173.146708 
L 357.051664 173.146708 
L 360.196873 165.476629 
L 369.046184 165.476629 
L 370.105973 162.863766 
L 377.068164 162.778688 
L 378.194752 160.218107 
L 378.212569 160.218107 
L 378.809067 159.025502 
L 378.935348 158.954833 
L 379.570393 157.3673 
L 381.964122 157.281535 
L 383.182838 154.291584 
L 383.404906 154.221189 
L 383.606598 153.979127 
L 384.039433 153.901322 
L 384.632234 152.419314 
L 384.632234 152.419314 
" style="fill:none;stroke:#2ca02c;stroke-linecap:square;stroke-width:1.5;"/>
   </g>
   <g id="patch_3">
    <path d="M 44.66 303.64 
L 44.66 25.44 
" style="fill:none;stroke:#000000;stroke-linecap:square;stroke-linejoin:miter;stroke-width:0.8;"/>
   </g>
   <g id="patch_4">
    <path d="M 403.63 303.64 
L 403.63 25.44 
" style="fill:none;stroke:#000000;stroke-linecap:square;stroke-linejoin:miter;stroke-width:0.8;"/>
   </g>
   <g id="patch_5">
    <path d="M 44.66 303.64 
L 403.63 303.64 
" style="fill:none;stroke:#000000;stroke-linecap:square;stroke-linejoin:miter;stroke-width:0.8;"/>
   </g>
   <g id="patch_6">
    <path d="M 44.66 25.44 
L 403.63 25.44 
" style="fill:none;stroke:#000000;stroke-linecap:square;stroke-linejoin:miter;stroke-width:0.8;"/>
   </g>
   <g id="text_13">
    <!-- Data collection at KNPP -->
    <defs>
     <path d="M 30.609375 48.390625 
Q 23.390625 48.390625 19.1875 42.75 
Q 14.984375 37.109375 14.984375 27.296875 
Q 14.984375 17.484375 19.15625 11.84375 
Q 23.34375 6.203125 30.609375 6.203125 
Q 37.796875 6.203125 41.984375 11.859375 
Q 46.1875 17.53125 46.1875 27.296875 
Q 46.1875 37.015625 41.984375 42.703125 
Q 37.796875 48.390625 30.609375 48.390625 
z
M 30.609375 56 
Q 42.328125 56 49.015625 48.375 
Q 55.71875 40.765625 55.71875 27.296875 
Q 55.71875 13.875 49.015625 6.21875 
Q 42.328125 -1.421875 30.609375 -1.421875 
Q 18.84375 -1.421875 12.171875 6.21875 
Q 5.515625 13.875 5.515625 27.296875 
Q 5.515625 40.765625 12.171875 48.375 
Q 18.84375 56 30.609375 56 
z
" id="DejaVuSans-6f"/>
     <path d="M 9.421875 75.984375 
L 18.40625 75.984375 
L 18.40625 0 
L 9.421875 0 
z
" id="DejaVuSans-6c"/>
     <path d="M 54.890625 33.015625 
L 54.890625 0 
L 45.90625 0 
L 45.90625 32.71875 
Q 45.90625 40.484375 42.875 44.328125 
Q 39.84375 48.1875 33.796875 48.1875 
Q 26.515625 48.1875 22.3125 43.546875 
Q 18.109375 38.921875 18.109375 30.90625 
L 18.109375 0 
L 9.078125 0 
L 9.078125 54.6875 
L 18.109375 54.6875 
L 18.109375 46.1875 
Q 21.34375 51.125 25.703125 53.5625 
Q 30.078125 56 35.796875 56 
Q 45.21875 56 50.046875 50.171875 
Q 54.890625 44.34375 54.890625 33.015625 
z
" id="DejaVuSans-6e"/>
     <path d="M 9.8125 72.90625 
L 19.671875 72.90625 
L 19.671875 42.09375 
L 52.390625 72.90625 
L 65.09375 72.90625 
L 28.90625 38.921875 
L 67.671875 0 
L 54.6875 0 
L 19.671875 35.109375 
L 19.671875 0 
L 9.8125 0 
z
" id="DejaVuSans-4b"/>
     <path d="M 9.8125 72.90625 
L 23.09375 72.90625 
L 55.421875 11.921875 
L 55.421875 72.90625 
L 64.984375 72.90625 
L 64.984375 0 
L 51.703125 0 
L 19.390625 60.984375 
L 19.390625 0 
L 9.8125 0 
z
" id="DejaVuSans-4e"/>
     <path d="M 19.671875 64.796875 
L 19.671875 37.40625 
L 32.078125 37.40625 
Q 38.96875 37.40625 42.71875 40.96875 
Q 46.484375 44.53125 46.484375 51.125 
Q 46.484375 57.671875 42.71875 61.234375 
Q 38.96875 64.796875 32.078125 64.796875 
z
M 9.8125 72.90625 
L 32.078125 72.90625 
Q 44.34375 72.90625 50.609375 67.359375 
Q 56.890625 61.8125 56.890625 51.125 
Q 56.890625 40.328125 50.609375 34.8125 
Q 44.34375 29.296875 32.078125 29.296875 
L 19.671875 29.296875 
L 19.671875 0 
L 9.8125 0 
z
" id="DejaVuSans-50"/>
    </defs>
    <g transform="translate(153.6225 19.44)scale(0.12 -0.12)">
     <use xlink:href="#DejaVuSans-44"/>
     <use x="77.001953" xlink:href="#DejaVuSans-61"/>
     <use x="138.28125" xlink:href="#DejaVuSans-74"/>
     <use x="177.490234" xlink:href="#DejaVuSans-61"/>
     <use x="238.769531" xlink:href="#DejaVuSans-20"/>
     <use x="270.556641" xlink:href="#DejaVuSans-63"/>
     <use x="325.537109" xlink:href="#DejaVuSans-6f"/>
     <use x="386.71875" xlink:href="#DejaVuSans-6c"/>
     <use x="414.501953" xlink:href="#DejaVuSans-6c"/>
     <use x="442.285156" xlink:href="#DejaVuSans-65"/>
     <use x="503.808594" xlink:href="#DejaVuSans-63"/>
     <use x="558.789062" xlink:href="#DejaVuSans-74"/>
     <use x="597.998047" xlink:href="#DejaVuSans-69"/>
     <use x="625.78125" xlink:href="#DejaVuSans-6f"/>
     <use x="686.962891" xlink:href="#DejaVuSans-6e"/>
     <use x="750.341797" xlink:href="#DejaVuSans-20"/>
     <use x="782.128906" xlink:href="#DejaVuSans-61"/>
     <use x="843.408203" xlink:href="#DejaVuSans-74"/>
     <use x="882.617188" xlink:href="#DejaVuSans-20"/>
     <use x="914.404297" xlink:href="#DejaVuSans-4b"/>
     <use x="979.980469" xlink:href="#DejaVuSans-4e"/>
     <use x="1054.785156" xlink:href="#DejaVuSans-50"/>
     <use x="1115.087891" xlink:href="#DejaVuSans-50"/>
    </g>
   </g>
  </g>
  <g id="axes_2">
   <g id="matplotlib.axis_3">
    <g id="ytick_6">
     <g id="line2d_23">
      <defs>
       <path d="M 0 0 
L 3.5 0 
" id="m32b7b27c45" style="stroke:#000000;stroke-width:0.8;"/>
      </defs>
      <g>
       <use style="stroke:#000000;stroke-width:0.8;" x="403.63" xlink:href="#m32b7b27c45" y="303.635785"/>
      </g>
     </g>
     <g id="text_14">
      <!-- 0 -->
      <g style="fill:#d62728;" transform="translate(410.63 307.435004)scale(0.1 -0.1)">
       <use xlink:href="#DejaVuSans-30"/>
      </g>
     </g>
    </g>
    <g id="ytick_7">
     <g id="line2d_24">
      <g>
       <use style="stroke:#000000;stroke-width:0.8;" x="403.63" xlink:href="#m32b7b27c45" y="261.484908"/>
      </g>
     </g>
     <g id="text_15">
      <!-- 1000 -->
      <g style="fill:#d62728;" transform="translate(410.63 265.284127)scale(0.1 -0.1)">
       <use xlink:href="#DejaVuSans-31"/>
       <use x="63.623047" xlink:href="#DejaVuSans-30"/>
       <use x="127.246094" xlink:href="#DejaVuSans-30"/>
       <use x="190.869141" xlink:href="#DejaVuSans-30"/>
      </g>
     </g>
    </g>
    <g id="ytick_8">
     <g id="line2d_25">
      <g>
       <use style="stroke:#000000;stroke-width:0.8;" x="403.63" xlink:href="#m32b7b27c45" y="219.334032"/>
      </g>
     </g>
     <g id="text_16">
      <!-- 2000 -->
      <g style="fill:#d62728;" transform="translate(410.63 223.133251)scale(0.1 -0.1)">
       <use xlink:href="#DejaVuSans-32"/>
       <use x="63.623047" xlink:href="#DejaVuSans-30"/>
       <use x="127.246094" xlink:href="#DejaVuSans-30"/>
       <use x="190.869141" xlink:href="#DejaVuSans-30"/>
      </g>
     </g>
    </g>
    <g id="ytick_9">
     <g id="line2d_26">
      <g>
       <use style="stroke:#000000;stroke-width:0.8;" x="403.63" xlink:href="#m32b7b27c45" y="177.183155"/>
      </g>
     </g>
     <g id="text_17">
      <!-- 3000 -->
      <g style="fill:#d62728;" transform="translate(410.63 180.982374)scale(0.1 -0.1)">
       <use xlink:href="#DejaVuSans-33"/>
       <use x="63.623047" xlink:href="#DejaVuSans-30"/>
       <use x="127.246094" xlink:href="#DejaVuSans-30"/>
       <use x="190.869141" xlink:href="#DejaVuSans-30"/>
      </g>
     </g>
    </g>
    <g id="ytick_10">
     <g id="line2d_27">
      <g>
       <use style="stroke:#000000;stroke-width:0.8;" x="403.63" xlink:href="#m32b7b27c45" y="135.032279"/>
      </g>
     </g>
     <g id="text_18">
      <!-- 4000 -->
      <g style="fill:#d62728;" transform="translate(410.63 138.831498)scale(0.1 -0.1)">
       <use xlink:href="#DejaVuSans-34"/>
       <use x="63.623047" xlink:href="#DejaVuSans-30"/>
       <use x="127.246094" xlink:href="#DejaVuSans-30"/>
       <use x="190.869141" xlink:href="#DejaVuSans-30"/>
      </g>
     </g>
    </g>
    <g id="ytick_11">
     <g id="line2d_28">
      <g>
       <use style="stroke:#000000;stroke-width:0.8;" x="403.63" xlink:href="#m32b7b27c45" y="92.881402"/>
      </g>
     </g>
     <g id="text_19">
      <!-- 5000 -->
      <g style="fill:#d62728;" transform="translate(410.63 96.680621)scale(0.1 -0.1)">
       <use xlink:href="#DejaVuSans-35"/>
       <use x="63.623047" xlink:href="#DejaVuSans-30"/>
       <use x="127.246094" xlink:href="#DejaVuSans-30"/>
       <use x="190.869141" xlink:href="#DejaVuSans-30"/>
      </g>
     </g>
    </g>
    <g id="ytick_12">
     <g id="line2d_29">
      <g>
       <use style="stroke:#000000;stroke-width:0.8;" x="403.63" xlink:href="#m32b7b27c45" y="50.730526"/>
      </g>
     </g>
     <g id="text_20">
      <!-- 6000 -->
      <defs>
       <path d="M 33.015625 40.375 
Q 26.375 40.375 22.484375 35.828125 
Q 18.609375 31.296875 18.609375 23.390625 
Q 18.609375 15.53125 22.484375 10.953125 
Q 26.375 6.390625 33.015625 6.390625 
Q 39.65625 6.390625 43.53125 10.953125 
Q 47.40625 15.53125 47.40625 23.390625 
Q 47.40625 31.296875 43.53125 35.828125 
Q 39.65625 40.375 33.015625 40.375 
z
M 52.59375 71.296875 
L 52.59375 62.3125 
Q 48.875 64.0625 45.09375 64.984375 
Q 41.3125 65.921875 37.59375 65.921875 
Q 27.828125 65.921875 22.671875 59.328125 
Q 17.53125 52.734375 16.796875 39.40625 
Q 19.671875 43.65625 24.015625 45.921875 
Q 28.375 48.1875 33.59375 48.1875 
Q 44.578125 48.1875 50.953125 41.515625 
Q 57.328125 34.859375 57.328125 23.390625 
Q 57.328125 12.15625 50.6875 5.359375 
Q 44.046875 -1.421875 33.015625 -1.421875 
Q 20.359375 -1.421875 13.671875 8.265625 
Q 6.984375 17.96875 6.984375 36.375 
Q 6.984375 53.65625 15.1875 63.9375 
Q 23.390625 74.21875 37.203125 74.21875 
Q 40.921875 74.21875 44.703125 73.484375 
Q 48.484375 72.75 52.59375 71.296875 
z
" id="DejaVuSans-36"/>
      </defs>
      <g style="fill:#d62728;" transform="translate(410.63 54.529745)scale(0.1 -0.1)">
       <use xlink:href="#DejaVuSans-36"/>
       <use x="63.623047" xlink:href="#DejaVuSans-30"/>
       <use x="127.246094" xlink:href="#DejaVuSans-30"/>
       <use x="190.869141" xlink:href="#DejaVuSans-30"/>
      </g>
     </g>
    </g>
    <g id="text_21">
     <!-- Core thermal power, MW -->
     <defs>
      <path d="M 64.40625 67.28125 
L 64.40625 56.890625 
Q 59.421875 61.53125 53.78125 63.8125 
Q 48.140625 66.109375 41.796875 66.109375 
Q 29.296875 66.109375 22.65625 58.46875 
Q 16.015625 50.828125 16.015625 36.375 
Q 16.015625 21.96875 22.65625 14.328125 
Q 29.296875 6.6875 41.796875 6.6875 
Q 48.140625 6.6875 53.78125 8.984375 
Q 59.421875 11.28125 64.40625 15.921875 
L 64.40625 5.609375 
Q 59.234375 2.09375 53.4375 0.328125 
Q 47.65625 -1.421875 41.21875 -1.421875 
Q 24.65625 -1.421875 15.125 8.703125 
Q 5.609375 18.84375 5.609375 36.375 
Q 5.609375 53.953125 15.125 64.078125 
Q 24.65625 74.21875 41.21875 74.21875 
Q 47.75 74.21875 53.53125 72.484375 
Q 59.328125 70.75 64.40625 67.28125 
z
" id="DejaVuSans-43"/>
      <path d="M 41.109375 46.296875 
Q 39.59375 47.171875 37.8125 47.578125 
Q 36.03125 48 33.890625 48 
Q 26.265625 48 22.1875 43.046875 
Q 18.109375 38.09375 18.109375 28.8125 
L 18.109375 0 
L 9.078125 0 
L 9.078125 54.6875 
L 18.109375 54.6875 
L 18.109375 46.1875 
Q 20.953125 51.171875 25.484375 53.578125 
Q 30.03125 56 36.53125 56 
Q 37.453125 56 38.578125 55.875 
Q 39.703125 55.765625 41.0625 55.515625 
z
" id="DejaVuSans-72"/>
      <path d="M 54.890625 33.015625 
L 54.890625 0 
L 45.90625 0 
L 45.90625 32.71875 
Q 45.90625 40.484375 42.875 44.328125 
Q 39.84375 48.1875 33.796875 48.1875 
Q 26.515625 48.1875 22.3125 43.546875 
Q 18.109375 38.921875 18.109375 30.90625 
L 18.109375 0 
L 9.078125 0 
L 9.078125 75.984375 
L 18.109375 75.984375 
L 18.109375 46.1875 
Q 21.34375 51.125 25.703125 53.5625 
Q 30.078125 56 35.796875 56 
Q 45.21875 56 50.046875 50.171875 
Q 54.890625 44.34375 54.890625 33.015625 
z
" id="DejaVuSans-68"/>
      <path d="M 18.109375 8.203125 
L 18.109375 -20.796875 
L 9.078125 -20.796875 
L 9.078125 54.6875 
L 18.109375 54.6875 
L 18.109375 46.390625 
Q 20.953125 51.265625 25.265625 53.625 
Q 29.59375 56 35.59375 56 
Q 45.5625 56 51.78125 48.09375 
Q 58.015625 40.1875 58.015625 27.296875 
Q 58.015625 14.40625 51.78125 6.484375 
Q 45.5625 -1.421875 35.59375 -1.421875 
Q 29.59375 -1.421875 25.265625 0.953125 
Q 20.953125 3.328125 18.109375 8.203125 
z
M 48.6875 27.296875 
Q 48.6875 37.203125 44.609375 42.84375 
Q 40.53125 48.484375 33.40625 48.484375 
Q 26.265625 48.484375 22.1875 42.84375 
Q 18.109375 37.203125 18.109375 27.296875 
Q 18.109375 17.390625 22.1875 11.75 
Q 26.265625 6.109375 33.40625 6.109375 
Q 40.53125 6.109375 44.609375 11.75 
Q 48.6875 17.390625 48.6875 27.296875 
z
" id="DejaVuSans-70"/>
      <path d="M 4.203125 54.6875 
L 13.1875 54.6875 
L 24.421875 12.015625 
L 35.59375 54.6875 
L 46.1875 54.6875 
L 57.421875 12.015625 
L 68.609375 54.6875 
L 77.59375 54.6875 
L 63.28125 0 
L 52.6875 0 
L 40.921875 44.828125 
L 29.109375 0 
L 18.5 0 
z
" id="DejaVuSans-77"/>
      <path d="M 9.8125 72.90625 
L 24.515625 72.90625 
L 43.109375 23.296875 
L 61.8125 72.90625 
L 76.515625 72.90625 
L 76.515625 0 
L 66.890625 0 
L 66.890625 64.015625 
L 48.09375 14.015625 
L 38.1875 14.015625 
L 19.390625 64.015625 
L 19.390625 0 
L 9.8125 0 
z
" id="DejaVuSans-4d"/>
      <path d="M 3.328125 72.90625 
L 13.28125 72.90625 
L 28.609375 11.28125 
L 43.890625 72.90625 
L 54.984375 72.90625 
L 70.3125 11.28125 
L 85.59375 72.90625 
L 95.609375 72.90625 
L 77.296875 0 
L 64.890625 0 
L 49.515625 63.28125 
L 33.984375 0 
L 21.578125 0 
z
" id="DejaVuSans-57"/>
     </defs>
     <g style="fill:#d62728;" transform="translate(447.678438 226.873594)rotate(-90)scale(0.1 -0.1)">
      <use xlink:href="#DejaVuSans-43"/>
      <use x="69.824219" xlink:href="#DejaVuSans-6f"/>
      <use x="131.005859" xlink:href="#DejaVuSans-72"/>
      <use x="172.087891" xlink:href="#DejaVuSans-65"/>
      <use x="233.611328" xlink:href="#DejaVuSans-20"/>
      <use x="265.398438" xlink:href="#DejaVuSans-74"/>
      <use x="304.607422" xlink:href="#DejaVuSans-68"/>
      <use x="367.986328" xlink:href="#DejaVuSans-65"/>
      <use x="429.509766" xlink:href="#DejaVuSans-72"/>
      <use x="470.607422" xlink:href="#DejaVuSans-6d"/>
      <use x="568.019531" xlink:href="#DejaVuSans-61"/>
      <use x="629.298828" xlink:href="#DejaVuSans-6c"/>
      <use x="657.082031" xlink:href="#DejaVuSans-20"/>
      <use x="688.869141" xlink:href="#DejaVuSans-70"/>
      <use x="752.345703" xlink:href="#DejaVuSans-6f"/>
      <use x="813.527344" xlink:href="#DejaVuSans-77"/>
      <use x="895.314453" xlink:href="#DejaVuSans-65"/>
      <use x="956.837891" xlink:href="#DejaVuSans-72"/>
      <use x="997.951172" xlink:href="#DejaVuSans-2c"/>
      <use x="1029.738281" xlink:href="#DejaVuSans-20"/>
      <use x="1061.525391" xlink:href="#DejaVuSans-4d"/>
      <use x="1147.804688" xlink:href="#DejaVuSans-57"/>
     </g>
    </g>
   </g>
   <g id="line2d_30">
    <path clip-path="url(#pb57842cdb1)" d="M 93.240635 173.726784 
L 93.39877 173.389577 
L 93.451573 173.473878 
L 93.504266 173.305275 
L 93.662456 173.768934 
L 93.715095 173.473878 
L 93.767843 173.684633 
L 93.820536 173.768934 
L 93.925923 173.136671 
L 93.978671 173.431727 
L 94.031364 173.726784 
L 94.084058 173.431727 
L 94.136751 173.516029 
L 94.189499 173.263124 
L 94.242193 173.347426 
L 94.347579 173.600331 
L 94.505714 173.136671 
L 94.611156 173.305275 
L 94.663849 173.431727 
L 94.716542 173.347426 
L 94.980119 173.305275 
L 95.138254 173.853236 
L 95.190947 173.473878 
L 95.243585 173.726784 
L 95.401665 173.473878 
L 95.454414 173.136671 
L 95.507107 173.473878 
L 95.5598 173.642482 
L 95.717935 173.178822 
L 95.87607 173.600331 
L 96.034205 173.178822 
L 96.192285 173.389577 
L 96.245033 173.220973 
L 96.297727 173.937538 
L 96.35042 173.600331 
L 96.403113 173.431727 
L 96.455861 173.684633 
L 96.508555 173.347426 
L 96.561248 173.473878 
L 96.613941 173.811085 
L 96.66669 173.305275 
L 96.719383 173.431727 
L 96.772076 173.516029 
L 96.82477 173.431727 
L 96.930211 173.473878 
L 96.982905 173.305275 
L 97.035598 173.55818 
L 97.088291 173.305275 
L 97.246371 173.473878 
L 97.299065 173.347426 
L 97.351758 173.55818 
L 97.404506 173.263124 
L 97.457199 173.516029 
L 97.562586 173.642482 
L 97.615279 173.136671 
L 97.668028 173.178822 
L 97.720666 173.220973 
L 97.773414 173.473878 
L 97.826108 173.431727 
L 98.036881 172.883766 
L 98.089629 173.347426 
L 98.142323 173.010219 
L 98.195016 172.883766 
L 98.300403 173.305275 
L 98.353096 173.220973 
L 98.405844 173.389577 
L 98.458537 173.220973 
L 98.511231 173.09452 
L 98.563924 173.136671 
L 98.722059 173.305275 
L 98.774752 173.05237 
L 98.880249 173.516029 
L 99.038384 173.136671 
L 99.143825 172.925917 
L 99.301905 173.263124 
L 99.357892 173.010219 
L 99.41064 173.220973 
L 99.463333 173.347426 
L 99.568775 172.883766 
L 99.621468 173.347426 
L 99.674162 173.220973 
L 99.779603 173.220973 
L 99.832297 173.347426 
L 99.88499 173.010219 
L 99.937683 173.263124 
L 100.043125 173.263124 
L 100.095818 172.925917 
L 100.148511 173.431727 
L 100.253953 173.389577 
L 100.306646 173.136671 
L 100.35934 173.263124 
L 100.412088 173.220973 
L 100.464781 173.347426 
L 100.517475 173.305275 
L 100.622861 173.305275 
L 100.675555 172.968068 
L 100.728248 173.389577 
L 100.780941 173.220973 
L 100.833635 173.136671 
L 100.991769 173.389577 
L 101.044518 173.263124 
L 101.097211 173.600331 
L 101.149904 173.389577 
L 101.416719 173.305275 
L 101.578147 173.55818 
L 101.630841 172.968068 
L 101.683589 173.136671 
L 101.788976 173.178822 
L 101.841669 173.010219 
L 101.894417 173.09452 
L 101.947111 173.347426 
L 101.999804 173.305275 
L 102.052497 173.09452 
L 102.263325 173.768934 
L 102.42146 173.09452 
L 102.526847 173.431727 
L 102.632234 173.136671 
L 102.684982 173.55818 
L 102.73762 173.09452 
L 102.793607 173.010219 
L 102.846355 173.178822 
L 102.899049 173.136671 
L 103.109822 173.05237 
L 103.16257 172.883766 
L 103.267957 173.305275 
L 103.376692 173.178822 
L 103.482078 173.473878 
L 103.643452 172.883766 
L 103.696145 172.841615 
L 103.85428 173.389577 
L 103.906973 173.263124 
L 103.959667 173.473878 
L 104.01236 173.263124 
L 104.065053 173.178822 
L 104.117801 173.220973 
L 104.170495 173.516029 
L 104.223243 173.178822 
L 104.328685 173.220973 
L 104.381433 173.09452 
L 104.486819 173.347426 
L 104.539513 173.136671 
L 104.592261 173.389577 
L 104.644954 173.263124 
L 104.803089 173.473878 
L 104.855783 173.600331 
L 104.908476 173.389577 
L 104.961169 173.516029 
L 105.066611 173.726784 
L 105.119304 173.220973 
L 105.171997 173.473878 
L 105.224746 173.389577 
L 105.277439 173.684633 
L 105.330132 173.55818 
L 105.382826 173.55818 
L 105.488267 173.895387 
L 105.540961 173.431727 
L 105.593709 173.726784 
L 105.699095 173.431727 
L 105.85723 173.811085 
L 106.01531 173.473878 
L 106.17339 173.937538 
L 106.384219 173.347426 
L 106.436912 173.642482 
L 106.48966 173.55818 
L 106.700488 173.768934 
L 106.753182 173.600331 
L 106.858568 173.853236 
L 106.911317 173.811085 
L 107.016703 173.516029 
L 107.174838 173.726784 
L 107.227531 173.600331 
L 107.28028 173.726784 
L 107.332973 173.937538 
L 107.385666 173.853236 
L 107.43836 173.895387 
L 107.491108 173.516029 
L 107.543801 173.684633 
L 107.596495 173.853236 
L 107.649188 173.431727 
L 107.701936 173.684633 
L 107.807323 173.642482 
L 107.859961 173.726784 
L 108.018096 173.389577 
L 108.070789 173.726784 
L 108.176176 173.684633 
L 108.334311 173.516029 
L 108.439698 173.684633 
L 108.597833 173.642482 
L 108.650526 173.768934 
L 108.703219 173.55818 
L 108.755913 173.600331 
L 108.808606 173.768934 
L 108.861299 173.389577 
L 108.914047 173.642482 
L 108.966741 173.600331 
L 109.019434 173.811085 
L 109.072127 173.642482 
L 109.177514 173.55818 
L 109.230262 173.389577 
L 109.282956 173.600331 
L 109.335649 173.516029 
L 109.388342 173.473878 
L 109.441036 173.684633 
L 109.546477 173.136671 
L 109.651974 173.726784 
L 109.704667 173.600331 
L 109.75736 173.937538 
L 109.810109 173.55818 
L 109.915495 173.811085 
L 109.968189 173.431727 
L 110.020937 173.473878 
L 110.179017 173.726784 
L 110.231765 173.811085 
L 110.284458 173.55818 
L 110.337152 173.768934 
L 110.389845 173.768934 
L 110.442593 173.642482 
L 110.495287 173.895387 
L 110.54798 173.642482 
L 110.706115 173.389577 
L 110.758808 173.684633 
L 110.811556 173.347426 
L 110.916943 173.811085 
L 110.969636 173.55818 
L 111.025678 173.600331 
L 111.183758 173.768934 
L 111.236506 173.768934 
L 111.289199 173.55818 
L 111.341893 173.684633 
L 111.394586 173.768934 
L 111.447279 173.516029 
L 111.499973 173.684633 
L 111.605359 173.811085 
L 111.658053 173.431727 
L 111.710801 173.726784 
L 111.868881 173.600331 
L 112.027071 173.895387 
L 112.079764 173.473878 
L 112.132457 173.55818 
L 112.293886 173.895387 
L 112.346579 173.600331 
L 112.399272 173.853236 
L 112.557407 173.516029 
L 112.662794 173.853236 
L 112.715542 173.811085 
L 112.820929 173.55818 
L 112.92637 173.811085 
L 113.031757 173.516029 
L 113.08445 173.55818 
L 113.189892 173.853236 
L 113.24253 173.600331 
L 113.295224 173.642482 
L 113.347972 173.642482 
L 113.558745 173.937538 
L 113.611439 173.811085 
L 113.664132 173.853236 
L 113.71688 173.979689 
L 113.769573 173.853236 
L 113.87496 173.853236 
L 113.980347 173.55818 
L 114.033095 173.600331 
L 114.085788 173.853236 
L 114.138482 173.684633 
L 114.191175 173.389577 
L 114.243868 173.642482 
L 114.296562 173.55818 
L 114.34931 173.642482 
L 114.454697 173.895387 
L 114.50739 173.600331 
L 114.560083 173.937538 
L 114.612777 173.347426 
L 114.665525 174.190443 
L 114.718218 174.063991 
L 114.823605 173.642482 
L 114.876298 173.811085 
L 114.928991 173.473878 
L 114.98174 173.600331 
L 115.139929 173.895387 
L 115.298064 173.600331 
L 115.350758 173.768934 
L 115.403451 173.726784 
L 115.561586 173.55818 
L 115.719721 173.937538 
L 115.831749 173.642482 
L 115.940429 173.979689 
L 116.098564 173.516029 
L 116.151257 173.642482 
L 116.203951 173.431727 
L 116.365379 173.811085 
L 116.418072 173.895387 
L 116.576207 173.516029 
L 116.6289 173.937538 
L 116.681649 173.853236 
L 116.892422 173.642482 
L 116.997809 173.895387 
L 117.10325 173.684633 
L 117.155943 173.979689 
L 117.208637 173.937538 
L 117.26133 173.726784 
L 117.314078 173.979689 
L 117.472158 173.473878 
L 117.524907 173.979689 
L 117.5776 173.811085 
L 117.630293 173.600331 
L 117.682987 173.726784 
L 117.844415 173.516029 
L 117.897108 173.642482 
L 118.00255 173.937538 
L 118.107991 173.768934 
L 118.213378 173.979689 
L 118.266071 173.853236 
L 118.318819 174.02184 
L 118.424206 173.642482 
L 118.476899 173.979689 
L 118.582341 173.937538 
L 118.740366 173.768934 
L 118.793114 173.979689 
L 118.845808 173.55818 
L 118.898501 173.811085 
L 119.003888 173.811085 
L 119.056581 173.684633 
L 119.214716 174.148292 
L 119.372796 173.600331 
L 119.478237 174.02184 
L 119.530931 173.895387 
L 119.741704 173.473878 
L 119.899839 173.768934 
L 120.005226 173.600331 
L 120.110667 173.853236 
L 120.163361 173.726784 
L 120.216054 173.937538 
L 120.268747 173.768934 
L 120.321441 173.516029 
L 120.426937 174.02184 
L 120.479685 173.895387 
L 120.532379 173.979689 
L 120.585072 173.642482 
L 120.63782 173.684633 
L 120.743207 173.768934 
L 120.7959 174.063991 
L 120.954035 173.726784 
L 121.006728 173.811085 
L 121.164863 173.642482 
L 121.217557 173.979689 
L 121.270305 173.726784 
L 121.322998 173.473878 
L 121.375691 173.642482 
L 121.533826 173.937538 
L 121.58652 173.600331 
L 121.639268 173.937538 
L 121.800641 173.684633 
L 121.853389 174.02184 
L 121.906083 173.516029 
L 121.958776 173.600331 
L 122.169604 173.895387 
L 122.327684 173.389577 
L 122.380378 173.473878 
L 122.485764 173.600331 
L 122.538513 173.431727 
L 122.643899 173.684633 
L 122.802034 173.347426 
L 122.854727 173.516029 
L 122.907421 173.263124 
L 122.960169 173.473878 
L 123.016156 173.684633 
L 123.068849 173.642482 
L 123.121542 173.55818 
L 123.174291 173.642482 
L 123.385119 173.516029 
L 123.437812 173.684633 
L 123.59924 173.347426 
L 123.704627 173.642482 
L 123.757375 174.063991 
L 123.810069 173.726784 
L 123.862762 173.937538 
L 124.020842 173.305275 
L 124.23167 173.768934 
L 124.284363 173.516029 
L 124.337057 173.600331 
L 124.38975 173.684633 
L 124.442443 173.55818 
L 124.495137 173.768934 
L 124.547885 173.55818 
L 124.600578 173.389577 
L 124.653272 173.600331 
L 124.705965 173.431727 
L 124.758658 173.347426 
L 124.8641 173.726784 
L 124.916793 173.431727 
L 124.969487 173.853236 
L 125.02218 173.431727 
L 125.074873 173.55818 
L 125.127567 173.220973 
L 125.180315 173.347426 
L 125.236301 173.473878 
L 125.288995 173.389577 
L 125.341688 173.347426 
L 125.394381 173.473878 
L 125.499768 173.263124 
L 125.552516 173.642482 
L 125.60521 173.431727 
L 125.76329 173.684633 
L 125.816093 173.642482 
L 125.921534 173.389577 
L 126.026921 173.726784 
L 126.082963 173.642482 
L 126.241097 173.473878 
L 126.293791 173.431727 
L 126.346484 173.684633 
L 126.399177 173.473878 
L 126.451926 173.55818 
L 126.504619 173.853236 
L 126.557312 173.684633 
L 126.662754 173.347426 
L 126.768141 173.768934 
L 126.873582 173.05237 
L 126.926275 173.431727 
L 126.978969 173.389577 
L 127.031662 173.726784 
L 127.08441 173.178822 
L 127.137104 173.263124 
L 127.295239 173.600331 
L 127.400625 173.347426 
L 127.453319 173.55818 
L 127.506067 173.431727 
L 127.55876 173.516029 
L 127.611399 173.389577 
L 127.769533 173.55818 
L 127.87492 173.642482 
L 127.927668 173.263124 
L 127.980362 173.600331 
L 128.033055 173.55818 
L 128.085748 174.02184 
L 128.138497 173.55818 
L 128.296577 173.431727 
L 128.454711 173.516029 
L 128.507405 173.431727 
L 128.612846 173.684633 
L 128.718288 173.389577 
L 128.770981 173.516029 
L 128.823675 173.684633 
L 128.876368 173.263124 
L 128.929061 173.473878 
L 129.034503 173.473878 
L 129.087196 173.55818 
L 129.245331 173.305275 
L 129.298024 173.726784 
L 129.350773 173.305275 
L 129.403411 173.347426 
L 129.456104 173.642482 
L 129.508798 173.347426 
L 129.561491 173.05237 
L 129.614184 173.642482 
L 129.666933 173.516029 
L 129.719626 173.431727 
L 129.772319 173.600331 
L 129.825013 173.263124 
L 129.877706 173.600331 
L 130.045721 173.431727 
L 130.203801 173.431727 
L 130.256494 173.684633 
L 130.361936 173.347426 
L 130.467322 173.684633 
L 130.520016 173.431727 
L 130.572709 173.811085 
L 130.625457 173.55818 
L 130.836231 173.473878 
L 130.888924 173.768934 
L 130.941672 173.516029 
L 130.994365 173.431727 
L 131.047059 173.811085 
L 131.099752 173.473878 
L 131.205249 173.895387 
L 131.257997 173.768934 
L 131.363383 173.473878 
L 131.416077 173.55818 
L 131.521518 173.642482 
L 131.574212 173.895387 
L 131.626905 173.684633 
L 131.78504 173.389577 
L 131.837733 173.937538 
L 131.890481 173.516029 
L 131.995868 173.726784 
L 132.048561 173.684633 
L 132.10131 173.600331 
L 132.154003 173.726784 
L 132.206696 173.516029 
L 132.25939 173.684633 
L 132.364831 173.642482 
L 132.522966 173.895387 
L 132.575659 173.516029 
L 132.628353 173.642482 
L 132.681101 173.684633 
L 132.733794 173.431727 
L 132.786488 173.853236 
L 132.839181 173.431727 
L 133.049954 173.684633 
L 133.102648 173.642482 
L 133.155396 173.389577 
L 133.208089 173.600331 
L 133.264076 173.853236 
L 133.422211 173.55818 
L 133.580346 173.979689 
L 133.633039 173.726784 
L 133.685732 173.389577 
L 133.843867 174.063991 
L 134.002002 173.642482 
L 134.107389 173.55818 
L 134.160137 173.600331 
L 134.21283 173.516029 
L 134.318217 173.431727 
L 134.370965 173.811085 
L 134.423659 173.642482 
L 134.634487 173.853236 
L 134.739873 173.516029 
L 134.84526 173.684633 
L 135.00334 173.473878 
L 135.056033 173.642482 
L 135.108782 173.726784 
L 135.161475 173.684633 
L 135.214168 173.473878 
L 135.266862 173.726784 
L 135.319555 173.684633 
L 135.530383 173.642482 
L 135.583077 173.811085 
L 135.793905 173.263124 
L 135.846598 173.684633 
L 135.951985 173.642482 
L 136.004678 173.516029 
L 136.057426 173.811085 
L 136.11012 173.768934 
L 136.162813 173.347426 
L 136.215506 173.600331 
L 136.320893 173.937538 
L 136.373641 173.726784 
L 136.426335 173.516029 
L 136.479028 173.811085 
L 136.531721 173.473878 
L 136.584415 173.811085 
L 136.689966 173.431727 
L 136.742659 173.726784 
L 136.795353 173.55818 
L 136.900794 173.726784 
L 137.006181 173.389577 
L 137.058874 173.768934 
L 137.111622 173.684633 
L 137.164316 173.684633 
L 137.217009 173.431727 
L 137.269757 173.726784 
L 137.322451 173.55818 
L 137.375144 173.473878 
L 137.533279 174.063991 
L 137.585972 173.516029 
L 137.638665 173.684633 
L 137.691414 173.600331 
L 137.744107 173.263124 
L 137.7968 173.389577 
L 138.007629 173.726784 
L 138.060322 173.305275 
L 138.11307 173.726784 
L 138.165763 173.642482 
L 138.218457 173.811085 
L 138.27115 173.473878 
L 138.323898 173.726784 
L 138.481923 173.473878 
L 138.534617 173.726784 
L 138.587365 173.600331 
L 138.798193 173.347426 
L 138.850887 173.389577 
L 139.009021 173.811085 
L 139.167156 173.55818 
L 139.272543 173.684633 
L 139.377985 173.263124 
L 139.536065 173.853236 
L 139.641506 173.811085 
L 139.746893 173.516029 
L 139.799641 173.726784 
L 139.852334 173.473878 
L 139.905028 173.600331 
L 140.063163 173.684633 
L 140.115856 173.347426 
L 140.168549 173.726784 
L 140.221243 173.726784 
L 140.273936 173.600331 
L 140.326629 173.726784 
L 140.379432 173.684633 
L 140.435309 173.431727 
L 140.488057 173.642482 
L 140.540751 173.642482 
L 140.646137 173.473878 
L 140.751524 173.684633 
L 140.962352 173.263124 
L 141.067739 173.347426 
L 141.173181 173.768934 
L 141.225874 173.220973 
L 141.278567 173.600331 
L 141.436647 173.389577 
L 141.489395 173.55818 
L 141.542089 173.389577 
L 141.594782 173.220973 
L 141.647475 173.389577 
L 141.700169 173.895387 
L 141.752862 173.684633 
L 141.858304 173.178822 
L 142.016493 173.600331 
L 142.069242 173.726784 
L 142.227322 173.516029 
L 142.28007 173.473878 
L 142.332763 173.853236 
L 142.385511 173.473878 
L 142.438205 173.305275 
L 142.596285 173.684633 
L 142.701781 173.684633 
L 142.859806 173.55818 
L 142.971835 173.431727 
L 143.024528 173.55818 
L 143.077331 173.473878 
L 143.12997 173.473878 
L 143.182663 173.979689 
L 143.235356 173.811085 
L 143.28805 173.473878 
L 143.340798 173.516029 
L 143.393491 173.642482 
L 143.446184 173.305275 
L 143.498933 173.642482 
L 143.551626 173.768934 
L 143.657013 173.431727 
L 143.709761 173.768934 
L 143.762454 173.684633 
L 143.815093 173.431727 
L 143.867786 173.684633 
L 143.920479 173.684633 
L 143.973228 173.389577 
L 144.025921 173.516029 
L 144.091788 173.389577 
L 144.249922 173.853236 
L 144.302616 173.811085 
L 144.460751 173.347426 
L 144.513444 173.516029 
L 144.566137 173.473878 
L 144.671579 173.431727 
L 144.724272 173.347426 
L 144.882407 173.684633 
L 144.987849 173.389577 
L 145.149222 173.684633 
L 145.20197 173.853236 
L 145.36005 173.516029 
L 145.570878 174.316896 
L 145.623572 174.02184 
L 145.676265 174.063991 
L 145.781652 174.359047 
L 145.834345 174.148292 
L 145.887093 174.063991 
L 145.939787 174.190443 
L 146.097867 173.811085 
L 146.15056 174.02184 
L 146.203253 173.937538 
L 146.256002 173.853236 
L 146.308695 174.02184 
L 146.361388 173.726784 
L 146.414082 173.853236 
L 146.466775 174.148292 
L 146.519468 174.063991 
L 146.677603 173.937538 
L 146.78299 174.106141 
L 146.888431 173.895387 
L 146.941125 174.190443 
L 146.993818 173.895387 
L 147.099205 174.190443 
L 147.151898 173.979689 
L 147.204591 174.274745 
L 147.25734 174.106141 
L 147.415529 173.768934 
L 147.520971 173.937538 
L 147.573664 173.895387 
L 147.626412 173.811085 
L 147.731799 174.106141 
L 147.784492 173.811085 
L 147.837186 173.853236 
L 148.153456 173.811085 
L 148.206149 173.726784 
L 148.416977 174.359047 
L 148.627805 173.768934 
L 148.680554 174.316896 
L 148.733247 173.895387 
L 148.891382 174.316896 
L 148.944075 173.979689 
L 148.996768 174.106141 
L 149.10221 174.316896 
L 149.154903 174.232594 
L 149.260235 174.106141 
L 149.41837 174.485499 
L 149.471063 174.359047 
L 149.523757 174.148292 
L 149.576505 174.401198 
L 149.629198 174.316896 
L 149.681892 174.359047 
L 149.73464 173.937538 
L 149.787333 174.316896 
L 149.945413 174.063991 
L 150.050855 174.02184 
L 150.20899 174.316896 
L 150.261683 174.063991 
L 150.314376 174.148292 
L 150.367124 174.106141 
L 150.472511 174.359047 
L 150.683339 173.853236 
L 150.736033 174.106141 
L 150.788781 173.895387 
L 150.894168 174.148292 
L 150.946861 174.485499 
L 150.999554 174.190443 
L 151.052248 174.316896 
L 151.104941 173.937538 
L 151.157634 174.52765 
L 151.210328 173.811085 
L 151.263021 174.401198 
L 151.421211 173.895387 
L 151.526542 174.232594 
L 151.631984 174.063991 
L 151.737371 174.232594 
L 151.790119 174.52765 
L 151.842757 174.443348 
L 151.895451 174.190443 
L 151.948199 174.359047 
L 152.000892 174.611952 
L 152.05364 174.52765 
L 152.159027 174.52765 
L 152.264414 174.780555 
L 152.317162 174.696254 
L 152.3698 174.611952 
L 152.422494 174.654103 
L 152.475187 174.738405 
L 152.633487 174.52765 
L 152.686015 174.696254 
L 152.844205 174.316896 
L 152.896953 174.274745 
L 153.111075 174.611952 
L 153.272503 174.274745 
L 153.325251 174.316896 
L 153.433931 174.316896 
L 153.592066 174.780555 
L 153.700746 174.401198 
L 153.809426 174.780555 
L 153.914868 174.696254 
L 154.079589 174.569801 
L 154.132283 174.569801 
L 154.241018 174.907008 
L 154.293711 174.696254 
L 154.349698 174.696254 
L 154.405684 174.822706 
L 154.511126 174.443348 
L 154.563819 174.485499 
L 154.616458 174.611952 
L 154.669151 174.569801 
L 154.774592 174.274745 
L 154.827286 174.52765 
L 154.879979 174.190443 
L 154.932672 174.485499 
L 155.45977 174.443348 
L 155.512464 174.316896 
L 155.565212 174.569801 
L 155.617905 174.190443 
L 155.670599 174.611952 
L 155.723292 174.569801 
L 155.77604 174.316896 
L 155.828734 174.52765 
L 155.93412 174.611952 
L 156.039562 174.274745 
L 156.197697 174.696254 
L 156.25039 174.654103 
L 156.303083 174.569801 
L 156.355777 174.274745 
L 156.40847 174.569801 
L 156.513857 174.696254 
L 156.56655 174.52765 
L 156.619243 174.569801 
L 156.671937 174.738405 
L 156.777378 174.232594 
L 156.830072 174.401198 
L 156.882765 174.52765 
L 156.935458 174.443348 
L 156.988206 174.485499 
L 157.0409 174.232594 
L 157.093593 174.696254 
L 157.146286 174.654103 
L 157.357115 174.359047 
L 157.409808 174.611952 
L 157.462501 174.443348 
L 157.623875 174.274745 
L 157.729316 174.485499 
L 157.78201 174.443348 
L 157.887396 174.232594 
L 157.940144 174.485499 
L 157.996131 174.359047 
L 158.048824 174.359047 
L 159.719093 258.239291 
L 159.877173 259.925326 
L 159.929922 259.208761 
L 159.98256 259.714572 
L 160.038547 260.093929 
L 160.354816 256.76401 
L 160.40751 257.396273 
L 160.460203 257.396273 
L 160.671031 303.635785 
L 303.850564 303.593634 
L 303.899964 303.425031 
L 303.998819 302.539862 
L 304.147019 303.635785 
L 304.990277 303.635785 
L 305.138477 302.45556 
L 305.187877 302.708466 
L 305.237277 302.539862 
L 305.336132 302.413409 
L 305.434932 302.539862 
L 305.484332 302.497711 
L 305.780897 302.582013 
L 305.929152 302.666315 
L 306.077407 302.539862 
L 306.126807 302.624164 
L 306.225661 302.160504 
L 306.423316 302.539862 
L 306.472716 302.413409 
L 306.522116 302.45556 
L 306.670371 302.708466 
L 306.769171 302.202655 
L 306.917426 302.539862 
L 306.966826 301.865448 
L 307.115081 297.397455 
L 307.164481 297.313153 
L 307.263336 295.922175 
L 307.372016 296.217231 
L 307.421416 295.669269 
L 307.619016 298.619831 
L 307.767271 297.313153 
L 307.816671 297.734662 
L 307.866071 297.313153 
L 308.063726 297.65036 
L 308.211981 296.385834 
L 308.261381 296.765192 
L 308.360235 296.849494 
L 308.409635 296.765192 
L 308.459035 295.121308 
L 308.706145 263.423849 
L 308.755545 263.676754 
L 308.804945 263.592452 
L 308.9532 264.772677 
L 309.052 265.152035 
L 309.1014 264.730526 
L 309.150855 264.983431 
L 309.200255 264.94128 
L 309.2496 265.362789 
L 309.299 264.098263 
L 309.3484 264.604073 
L 309.447255 266.163656 
L 309.496655 265.8686 
L 309.546055 265.8686 
L 309.595455 266.205807 
L 309.644855 267.638936 
L 309.69431 265.995052 
L 309.74371 266.964522 
L 309.79311 265.067733 
L 309.84251 265.784298 
L 309.99071 267.723238 
L 310.040165 265.489242 
L 310.089565 266.500863 
L 310.188365 269.493575 
L 310.237765 268.31335 
L 310.287165 263.466 
L 310.336565 264.43547 
L 310.38602 266.205807 
L 310.48482 260.641891 
L 310.53422 261.779965 
L 310.58362 267.090975 
L 310.682475 266.332259 
L 310.731875 262.03287 
L 310.784568 263.00234 
L 310.936061 267.048824 
L 310.985461 265.152035 
L 311.034971 266.711617 
L 311.084426 267.849691 
L 311.133826 262.117172 
L 311.183226 262.918038 
L 311.282081 265.362789 
L 311.331481 264.266866 
L 311.380881 264.730526 
L 311.479736 259.883175 
L 311.578536 261.779965 
L 311.726791 265.362789 
L 311.776191 265.320638 
L 311.924445 290.569013 
L 311.973845 290.273957 
L 312.023245 290.90622 
L 312.0727 289.093733 
L 312.1715 263.044491 
L 312.270355 263.423849 
L 312.319755 263.50815 
L 312.46801 265.278487 
L 312.56681 243.823691 
L 312.61621 246.858554 
L 312.665665 246.816403 
L 312.715065 247.490817 
L 312.764465 249.851266 
L 313.15972 203.991113 
L 313.20912 202.43153 
L 313.25852 202.684436 
L 313.456175 205.255639 
L 313.50563 205.424243 
L 313.55503 206.26726 
L 313.60443 204.581225 
L 313.65383 205.044885 
L 313.703285 205.550695 
L 313.752685 205.466394 
L 314.296194 178.82704 
L 314.395049 176.888099 
L 314.444449 178.152626 
L 314.493849 177.941871 
L 314.543304 177.773268 
L 314.740849 179.33285 
L 314.889104 178.194776 
L 314.987904 178.110475 
L 315.136159 174.359047 
L 315.185559 174.822706 
L 315.234959 174.485499 
L 315.333759 174.274745 
L 315.485307 175.286366 
L 315.534707 174.569801 
L 315.584107 175.159913 
L 315.781762 174.696254 
L 315.831162 174.864857 
L 315.880562 174.485499 
L 315.929962 174.611952 
L 316.028762 175.033461 
L 316.177017 176.593043 
L 316.226417 176.593043 
L 316.275817 176.42444 
L 316.325217 176.508741 
L 316.374617 176.550892 
L 316.424127 177.141005 
L 316.473582 174.274745 
L 316.572382 174.822706 
L 316.671237 174.822706 
L 316.720637 174.52765 
L 316.770037 175.033461 
L 316.819492 174.907008 
L 316.918292 174.106141 
L 316.967692 174.359047 
L 317.165346 173.937538 
L 317.214746 174.063991 
L 317.313601 174.232594 
L 317.363001 174.569801 
L 317.461856 173.136671 
L 317.560656 173.263124 
L 317.708911 173.937538 
L 317.758311 173.263124 
L 317.807711 173.811085 
L 318.005366 174.401198 
L 318.104221 173.853236 
L 318.153621 174.063991 
L 318.203021 173.979689 
L 318.252366 173.684633 
L 318.301821 173.937538 
L 318.450021 174.148292 
L 318.548876 173.178822 
L 318.647676 173.55818 
L 318.697131 173.811085 
L 318.746531 173.726784 
L 318.795931 173.431727 
L 318.845331 173.768934 
L 318.894731 173.516029 
L 319.14184 177.141005 
L 319.24064 177.141005 
L 319.339495 177.014552 
L 319.487695 176.677345 
L 319.58655 177.309608 
L 319.68535 177.141005 
L 319.738098 177.056703 
L 319.787498 177.351759 
L 319.935753 176.719496 
L 319.985153 177.267457 
L 320.083898 177.225306 
L 320.133298 177.267457 
L 320.284847 176.719496 
L 320.43634 177.267457 
L 320.48574 177.225306 
L 320.535195 177.646815 
L 320.633995 173.684633 
L 320.686688 173.895387 
L 320.785488 173.642482 
L 320.834888 173.895387 
L 320.89093 173.55818 
L 320.94033 173.853236 
L 320.98973 173.937538 
L 321.03913 173.684633 
L 321.08853 173.937538 
L 321.13793 173.937538 
L 321.187385 173.642482 
L 321.236785 174.02184 
L 321.335585 173.473878 
L 321.539826 173.811085 
L 321.589226 173.389577 
L 321.638626 173.726784 
L 321.688026 173.979689 
L 321.737426 173.389577 
L 321.786826 173.473878 
L 321.836336 173.55818 
L 321.935191 173.516029 
L 321.984591 173.937538 
L 322.034046 173.979689 
L 322.182246 173.600331 
L 322.231701 173.811085 
L 322.330501 173.768934 
L 322.379901 173.389577 
L 322.429356 173.811085 
L 322.47881 173.937538 
L 322.528156 173.389577 
L 322.57761 173.516029 
L 322.626022 173.55818 
L 322.673062 173.389577 
L 322.824556 173.895387 
L 322.873956 173.853236 
L 322.923356 173.55818 
L 322.976049 174.148292 
L 323.074904 173.389577 
L 323.127597 173.895387 
L 323.176997 173.642482 
L 323.226452 173.473878 
L 323.374652 173.895387 
L 323.522907 173.516029 
L 323.572307 173.811085 
L 323.671107 173.768934 
L 323.769907 173.811085 
L 323.819307 173.516029 
L 323.868762 174.02184 
L 323.918162 173.726784 
L 323.967562 173.768934 
L 324.016962 173.516029 
L 324.115817 173.55818 
L 324.362872 173.979689 
L 324.461726 173.684633 
L 324.511785 173.768934 
L 324.560526 174.106141 
L 324.609926 173.600331 
L 324.659381 173.768934 
L 324.708781 173.895387 
L 324.856981 173.347426 
L 325.005236 173.979689 
L 325.054636 173.431727 
L 325.104146 173.642482 
L 325.202891 173.853236 
L 325.252291 173.642482 
L 325.301746 173.684633 
L 325.351146 173.768934 
L 325.400546 173.726784 
L 325.449891 173.600331 
L 325.548746 173.853236 
L 325.696946 173.600331 
L 325.845146 173.895387 
L 325.894601 173.684633 
L 325.944001 173.811085 
L 325.996694 173.937538 
L 326.046094 173.811085 
L 326.095494 173.642482 
L 326.194349 173.684633 
L 326.391949 173.937538 
L 326.490749 173.684633 
L 326.540204 173.979689 
L 326.589604 173.684633 
L 326.639004 173.768934 
L 326.688404 173.473878 
L 326.737804 173.684633 
L 326.787204 173.768934 
L 326.935459 173.516029 
L 326.984859 173.516029 
L 327.034259 173.937538 
L 327.083659 173.642482 
L 327.133059 173.516029 
L 327.232024 173.853236 
L 327.281424 173.768934 
L 327.330824 173.937538 
L 327.380278 173.811085 
L 327.482372 173.768934 
L 327.531772 173.642482 
L 327.581227 173.853236 
L 327.630627 173.600331 
L 327.680027 173.768934 
L 327.729427 173.473878 
L 327.778827 173.684633 
L 327.828282 173.726784 
L 327.877682 173.600331 
L 327.927082 173.684633 
L 327.976482 173.853236 
L 328.025936 173.768934 
L 328.124736 173.516029 
L 328.174136 173.726784 
L 328.223591 173.55818 
L 328.272991 173.55818 
L 328.322391 173.895387 
L 328.371791 173.726784 
L 328.470646 173.726784 
L 328.520046 173.895387 
L 328.569446 173.305275 
L 328.618901 173.389577 
L 328.668301 173.895387 
L 328.717701 173.726784 
L 328.767101 173.516029 
L 328.816556 173.55818 
L 328.865956 173.895387 
L 328.915356 173.55818 
L 329.014156 173.811085 
L 329.063556 173.431727 
L 329.112956 173.684633 
L 329.261211 173.811085 
L 329.409411 173.684633 
L 329.458811 173.937538 
L 329.557666 173.473878 
L 329.607066 173.642482 
L 329.656466 173.811085 
L 329.705921 173.684633 
L 329.755321 173.684633 
L 329.804721 174.106141 
L 329.854121 173.768934 
L 329.903576 173.600331 
L 329.952976 173.768934 
L 330.002376 173.811085 
L 330.051776 173.642482 
L 330.10123 173.768934 
L 330.20003 173.684633 
L 330.24943 173.642482 
L 330.298885 173.726784 
L 330.348285 173.726784 
L 330.397685 173.55818 
L 330.447085 173.768934 
L 330.49654 173.684633 
L 330.54594 173.853236 
L 330.59534 173.726784 
L 330.743595 173.811085 
L 330.84234 173.389577 
L 330.89174 173.55818 
L 330.941195 173.389577 
L 331.089395 173.811085 
L 331.138795 173.726784 
L 331.188195 174.02184 
L 331.237595 173.811085 
L 331.28705 173.937538 
L 331.38585 173.600331 
L 331.48465 173.937538 
L 331.53405 173.642482 
L 331.583505 173.726784 
L 331.682305 173.895387 
L 331.830505 173.263124 
L 331.97876 173.389577 
L 332.12696 173.516029 
L 332.17636 173.305275 
L 332.225815 173.389577 
L 332.374015 173.642482 
L 332.522215 173.516029 
L 332.670579 174.02184 
L 332.719979 173.726784 
L 332.772673 174.063991 
L 332.822128 174.063991 
L 332.871528 173.389577 
L 332.970328 173.516029 
L 333.019782 173.895387 
L 333.069182 173.684633 
L 333.118582 173.726784 
L 333.167982 173.979689 
L 333.217437 173.726784 
L 333.316237 174.148292 
L 333.365637 173.895387 
L 333.415092 173.895387 
L 333.464492 173.642482 
L 333.612747 174.063991 
L 333.711547 173.642482 
L 333.760947 173.726784 
L 333.810402 173.895387 
L 333.859802 173.600331 
L 333.909202 173.811085 
L 333.958602 173.979689 
L 334.008057 173.853236 
L 334.156257 173.642482 
L 334.353912 174.106141 
L 334.452712 173.55818 
L 334.551512 174.106141 
L 334.600912 173.684633 
L 334.699767 173.768934 
L 334.749167 174.063991 
L 334.798567 173.642482 
L 334.897422 173.684633 
L 334.946822 173.895387 
L 334.996222 173.642482 
L 335.14777 174.063991 
L 335.296025 173.684633 
L 335.394825 173.642482 
L 335.49368 173.937538 
L 335.54308 173.895387 
L 335.59248 173.811085 
L 335.740734 174.106141 
L 335.839534 173.600331 
L 335.994376 173.979689 
L 336.043776 173.726784 
L 336.093231 174.190443 
L 336.142631 173.768934 
L 336.340176 174.063991 
L 336.488431 173.853236 
L 336.537831 174.063991 
L 336.587231 173.642482 
L 336.636631 173.811085 
L 336.686086 173.853236 
L 336.735486 173.726784 
L 336.784886 173.895387 
L 336.883686 173.895387 
L 337.031941 173.600331 
L 337.081341 173.937538 
L 337.130741 173.811085 
L 337.180141 173.684633 
L 337.229541 173.895387 
L 337.278941 173.726784 
L 337.328396 173.600331 
L 337.377796 173.684633 
L 337.476596 173.726784 
L 337.525996 173.600331 
L 337.578689 173.811085 
L 337.628144 173.768934 
L 337.726944 173.642482 
L 337.777771 173.853236 
L 337.825744 173.684633 
L 337.875199 173.600331 
L 337.924599 173.726784 
L 338.023508 173.516029 
L 338.072908 173.726784 
L 338.122308 173.895387 
L 338.171763 173.684633 
L 338.270563 173.811085 
L 338.369418 173.600331 
L 338.418818 174.106141 
L 338.468218 173.431727 
L 338.517618 173.55818 
L 338.665873 173.726784 
L 338.764728 173.642482 
L 338.962383 173.853236 
L 339.011783 173.642482 
L 339.061183 173.684633 
L 339.110583 173.853236 
L 339.163331 173.55818 
L 339.212731 173.726784 
L 339.262131 173.726784 
L 339.311531 173.473878 
L 339.360931 173.642482 
L 339.459786 173.853236 
L 339.608041 173.684633 
L 339.657441 174.190443 
L 339.706841 173.768934 
L 339.756241 173.55818 
L 339.805641 173.768934 
L 339.855041 174.106141 
L 339.904441 173.516029 
L 340.003241 173.642482 
L 340.055989 173.55818 
L 340.154789 173.937538 
L 340.204189 173.895387 
L 340.401844 173.600331 
L 340.451299 173.895387 
L 340.500699 173.768934 
L 340.550099 173.600331 
L 340.599499 173.726784 
L 340.648954 173.811085 
L 340.698354 173.642482 
L 340.747754 173.768934 
L 340.797154 173.979689 
L 340.846609 173.895387 
L 340.896009 173.305275 
L 340.945409 173.726784 
L 340.994809 173.979689 
L 341.044264 173.811085 
L 341.143064 173.684633 
L 341.241918 174.106141 
L 341.291318 173.895387 
L 341.393412 173.642482 
L 341.492267 173.768934 
L 341.541667 173.726784 
L 341.591067 173.811085 
L 341.640412 173.516029 
L 341.689867 173.853236 
L 341.739267 173.979689 
L 341.788667 173.811085 
L 341.838067 173.768934 
L 341.887467 173.937538 
L 341.936867 173.642482 
L 341.986267 173.726784 
L 342.035722 173.979689 
L 342.134522 173.642482 
L 342.183922 173.726784 
L 342.332176 173.473878 
L 342.430976 173.895387 
L 342.480376 173.684633 
L 342.530545 173.642482 
L 342.678031 173.937538 
L 342.776831 173.600331 
L 342.826231 173.811085 
L 342.925031 173.853236 
L 342.974486 173.473878 
L 343.073286 173.979689 
L 343.122686 173.768934 
L 343.172086 173.516029 
L 343.221486 173.726784 
L 343.270886 173.853236 
L 343.320341 173.389577 
L 343.369741 173.726784 
L 343.419251 173.853236 
L 343.468651 173.811085 
L 343.616906 173.55818 
L 343.715706 173.768934 
L 343.814561 173.473878 
L 343.962816 173.937538 
L 344.061616 173.811085 
L 344.20987 173.600331 
L 344.25927 173.55818 
L 344.30867 173.642482 
L 344.358125 173.642482 
L 344.407525 173.473878 
L 344.456925 173.768934 
L 344.506325 173.347426 
L 344.555725 173.516029 
L 344.65458 173.768934 
L 344.70398 173.684633 
L 344.75338 173.600331 
L 344.802835 173.768934 
L 344.852235 173.473878 
L 344.901635 173.642482 
L 345.00049 173.473878 
L 345.09929 173.768934 
L 345.14869 173.600331 
L 345.19809 173.642482 
L 345.494545 173.811085 
L 345.7416 173.389577 
L 345.889855 173.726784 
L 345.939255 173.811085 
L 345.988655 173.726784 
L 346.13691 173.473878 
L 346.23571 173.55818 
L 346.285164 173.853236 
L 346.334564 173.305275 
L 346.383964 173.811085 
L 346.433364 173.642482 
L 346.482819 173.768934 
L 346.532219 173.979689 
L 346.631019 173.431727 
L 346.680474 173.684633 
L 346.828674 173.347426 
L 346.927529 173.726784 
L 346.976929 173.55818 
L 347.125129 173.684633 
L 347.174529 173.431727 
L 347.223929 173.726784 
L 347.273329 173.811085 
L 347.372129 173.431727 
L 347.421584 173.516029 
L 347.470984 173.811085 
L 347.520384 173.768934 
L 347.569784 173.473878 
L 347.619184 173.684633 
L 347.915639 173.389577 
L 348.063894 173.726784 
L 348.113294 173.811085 
L 348.212094 173.305275 
L 348.261494 173.600331 
L 348.459149 173.347426 
L 348.557949 173.684633 
L 348.607349 173.55818 
L 348.706149 173.389577 
L 348.854513 173.55818 
L 349.101568 173.305275 
L 349.151023 173.726784 
L 349.200423 173.600331 
L 349.249823 173.389577 
L 349.299223 173.600331 
L 349.398078 173.811085 
L 349.496878 173.389577 
L 349.645133 173.853236 
L 349.793388 173.55818 
L 349.842788 173.895387 
L 349.892188 173.726784 
L 350.047029 173.389577 
L 350.145829 173.726784 
L 350.294084 173.473878 
L 350.343484 173.600331 
L 350.392939 173.55818 
L 350.541139 173.389577 
L 350.590539 173.600331 
L 350.639939 173.431727 
L 350.788139 173.516029 
L 350.837594 173.389577 
L 350.886994 173.516029 
L 350.936394 173.55818 
L 350.985794 173.389577 
L 351.084649 172.504408 
L 351.134049 172.546559 
L 351.183449 172.883766 
L 351.232849 172.757313 
L 351.282304 172.546559 
L 351.331704 172.841615 
L 351.381104 172.757313 
L 351.430504 171.956447 
L 351.479959 172.630861 
L 351.628159 172.673012 
L 351.677614 172.335805 
L 351.776414 172.841615 
L 351.825814 172.799464 
L 351.875268 172.841615 
L 351.924668 172.757313 
L 352.122323 172.799464 
L 352.171723 173.09452 
L 352.319978 172.58871 
L 352.369378 172.757313 
L 352.418723 172.673012 
L 352.468123 172.630861 
L 352.665778 172.968068 
L 352.813978 172.799464 
L 353.011633 172.925917 
L 353.110433 172.715162 
L 353.159888 172.757313 
L 353.308088 172.841615 
L 353.357488 172.546559 
L 353.406888 172.757313 
L 353.505743 172.462257 
L 353.604543 172.757313 
L 353.703343 172.546559 
L 353.851598 172.883766 
L 353.900998 172.799464 
L 353.950398 172.968068 
L 354.049198 172.630861 
L 354.098598 172.799464 
L 354.148053 172.757313 
L 354.197508 172.673012 
L 354.246962 172.715162 
L 354.395217 172.757313 
L 354.444617 172.630861 
L 354.494017 172.799464 
L 354.592872 172.757313 
L 354.642272 172.630861 
L 354.691672 172.883766 
L 354.741072 172.715162 
L 354.790527 172.630861 
L 354.938727 172.968068 
L 355.037582 173.09452 
L 355.086982 172.968068 
L 355.136382 173.389577 
L 355.185837 172.841615 
L 355.284637 172.968068 
L 355.432892 172.715162 
L 355.581092 173.05237 
L 355.630547 172.799464 
L 355.679947 173.178822 
L 355.729347 172.968068 
L 355.828202 172.58871 
L 355.877602 172.715162 
L 355.927002 172.715162 
L 355.976402 172.841615 
L 356.025802 172.673012 
L 356.174002 172.546559 
L 356.272856 172.504408 
L 356.322256 172.883766 
L 356.371656 172.715162 
L 356.421056 172.968068 
L 356.470511 172.715162 
L 356.519911 172.673012 
L 356.668166 172.841615 
L 356.717566 172.420106 
L 356.766966 172.58871 
L 356.964621 172.925917 
L 357.014021 172.841615 
L 357.063476 172.673012 
L 357.162276 172.715162 
L 357.211676 172.968068 
L 357.261076 172.883766 
L 357.359931 172.925917 
L 357.458731 172.546559 
L 357.610279 172.799464 
L 357.758534 172.630861 
L 357.857279 173.09452 
L 357.956134 172.630861 
L 358.104334 172.799464 
L 358.153734 172.546559 
L 358.203134 172.715162 
L 358.252589 172.925917 
L 358.301989 172.799464 
L 358.450189 172.673012 
L 358.502882 172.883766 
L 358.552282 172.715162 
L 358.700537 172.293654 
L 358.898192 172.58871 
L 359.046392 172.377955 
L 359.095792 172.630861 
L 359.145192 172.377955 
L 359.244047 172.462257 
L 359.293447 172.799464 
L 359.342847 172.251503 
L 359.441647 172.335805 
L 359.491047 172.630861 
L 359.540447 172.377955 
L 359.589957 172.546559 
L 359.639412 172.420106 
L 359.688812 172.377955 
L 359.738212 172.58871 
L 359.787666 172.420106 
L 359.886466 172.420106 
L 359.935866 172.251503 
L 359.985321 172.335805 
L 360.133521 172.630861 
L 360.182976 172.377955 
L 360.281776 173.220973 
L 360.331176 173.010219 
L 360.430031 173.389577 
L 360.578231 173.05237 
L 360.627686 173.178822 
L 360.775886 172.757313 
L 360.924141 173.220973 
L 360.973541 172.925917 
L 361.022996 173.010219 
L 361.072396 173.09452 
L 361.121796 172.968068 
L 361.171196 172.673012 
L 361.220651 172.925917 
L 361.319451 173.136671 
L 361.368851 172.968068 
L 361.418196 173.010219 
L 361.467651 173.220973 
L 361.615851 172.841615 
L 361.764106 173.220973 
L 361.813506 173.09452 
L 361.862906 173.178822 
L 361.91236 173.347426 
L 361.96176 172.883766 
L 362.01116 173.010219 
L 362.06056 173.263124 
L 362.110015 173.05237 
L 362.30767 173.220973 
L 362.35707 172.925917 
L 362.40647 173.305275 
L 362.45587 173.136671 
L 362.505325 172.799464 
L 362.554725 172.925917 
L 362.604125 173.09452 
L 362.70298 173.05237 
L 362.85118 173.220973 
L 362.900635 173.05237 
L 362.950035 173.389577 
L 362.999435 173.220973 
L 363.14769 172.968068 
L 363.246435 173.09452 
L 363.39469 172.925917 
L 363.496783 173.05237 
L 363.546183 172.925917 
L 363.595583 173.09452 
L 363.743838 172.925917 
L 363.892038 173.178822 
L 363.994186 173.05237 
L 364.04688 173.178822 
L 364.15556 172.799464 
L 364.303814 173.220973 
L 364.353214 173.178822 
L 364.550814 173.136671 
L 364.600214 173.05237 
L 364.649669 173.263124 
L 364.699069 172.968068 
L 364.748469 173.473878 
L 364.797869 173.05237 
L 365.045034 173.389577 
L 365.094434 173.09452 
L 365.143834 173.178822 
L 365.193289 173.431727 
L 365.242689 173.263124 
L 365.341489 172.925917 
L 365.390944 173.010219 
L 365.539144 172.799464 
L 365.588599 172.883766 
L 365.687399 172.925917 
L 365.736799 172.757313 
L 365.786199 172.968068 
L 365.835654 172.883766 
L 365.934454 173.136671 
L 365.983854 172.841615 
L 366.033308 172.925917 
L 366.082708 172.968068 
L 366.132108 172.883766 
L 366.230963 172.58871 
L 366.280363 172.841615 
L 366.379163 172.799464 
L 366.527418 173.178822 
L 366.675673 172.883766 
L 366.725073 173.09452 
L 366.774473 173.010219 
L 366.823818 172.757313 
L 366.873273 173.010219 
L 366.925966 173.178822 
L 366.975366 173.09452 
L 367.173021 172.883766 
L 367.420076 173.136671 
L 367.518931 172.883766 
L 367.568331 172.968068 
L 367.617731 172.799464 
L 367.667131 172.968068 
L 367.765986 172.799464 
L 367.815386 173.136671 
L 367.914241 173.09452 
L 367.963641 173.178822 
L 368.111896 172.841615 
L 368.161296 173.220973 
L 368.210696 173.05237 
L 368.260096 172.925917 
L 368.358951 172.968068 
L 368.408351 172.925917 
L 368.457751 173.178822 
L 368.556606 172.799464 
L 368.605951 173.010219 
L 368.655351 172.925917 
L 368.704751 172.757313 
L 368.754206 172.799464 
L 368.803606 173.136671 
L 368.853006 172.968068 
L 369.050606 172.799464 
L 369.24826 173.263124 
L 369.34706 172.925917 
L 369.39646 173.347426 
L 369.445915 173.136671 
L 369.643515 173.263124 
L 369.84117 172.968068 
L 369.89057 173.05237 
L 369.93997 172.968068 
L 369.98937 172.841615 
L 370.03877 172.925917 
L 370.137625 173.178822 
L 370.187025 172.799464 
L 370.236425 173.09452 
L 370.43419 172.925917 
L 370.536283 173.136671 
L 370.585683 172.883766 
L 370.684538 172.925917 
L 370.733938 173.09452 
L 370.783338 172.630861 
L 370.832793 173.178822 
L 370.980993 172.883766 
L 371.079848 173.178822 
L 371.129248 173.09452 
L 371.178648 173.136671 
L 371.228103 172.757313 
L 371.277503 172.883766 
L 371.326903 173.09452 
L 371.376303 172.757313 
L 371.425758 172.799464 
L 371.573958 173.136671 
L 371.623412 172.757313 
L 371.672812 173.305275 
L 371.722212 173.010219 
L 371.771612 173.010219 
L 371.870467 173.05237 
L 371.919867 172.883766 
L 372.018722 173.010219 
L 372.166922 172.799464 
L 372.265667 173.136671 
L 372.315122 173.05237 
L 372.364522 172.883766 
L 372.413922 173.010219 
L 372.463322 173.05237 
L 372.512777 172.925917 
L 372.562177 173.136671 
L 372.660977 173.09452 
L 372.759832 173.220973 
L 372.858632 172.799464 
L 372.908087 172.925917 
L 373.006887 173.05237 
L 373.105742 172.883766 
L 373.155142 172.925917 
L 373.303397 173.05237 
L 373.402197 172.757313 
L 373.550452 173.178822 
L 373.603145 173.220973 
L 373.7514 172.925917 
L 373.8008 173.136671 
L 373.8996 173.09452 
L 373.9984 172.883766 
L 374.0972 173.05237 
L 374.1466 172.925917 
L 374.245455 172.968068 
L 374.347548 173.05237 
L 374.495803 173.136671 
L 374.594603 172.841615 
L 374.644003 173.305275 
L 374.693403 173.010219 
L 374.742803 172.799464 
L 374.792203 173.05237 
L 374.989858 172.841615 
L 375.039258 172.883766 
L 375.088658 173.09452 
L 375.138058 172.841615 
L 375.286313 173.010219 
L 375.434513 172.757313 
L 375.483968 172.883766 
L 375.533368 173.09452 
L 375.582768 172.799464 
L 375.632168 173.09452 
L 375.730968 172.968068 
L 375.780477 173.05237 
L 375.829932 173.136671 
L 375.879332 172.841615 
L 375.928732 173.010219 
L 375.978132 173.263124 
L 376.027587 173.05237 
L 376.076987 173.178822 
L 376.126387 172.841615 
L 376.175787 173.178822 
L 376.274642 172.968068 
L 376.324042 173.09452 
L 376.472297 173.220973 
L 376.521697 172.757313 
L 376.571097 173.05237 
L 376.719352 172.883766 
L 376.818207 173.05237 
L 376.867607 172.841615 
L 376.917007 172.883766 
L 376.966407 173.05237 
L 377.015807 173.010219 
L 377.065262 172.883766 
L 377.114662 173.05237 
L 377.262916 173.263124 
L 377.411116 173.010219 
L 377.608716 173.305275 
L 377.658116 173.010219 
L 377.756971 173.05237 
L 377.806371 173.178822 
L 377.855771 172.883766 
L 377.905226 173.136671 
L 377.954626 173.010219 
L 378.004026 173.431727 
L 378.053426 172.925917 
L 378.102881 173.09452 
L 378.152281 173.05237 
L 378.307123 172.968068 
L 378.405923 172.925917 
L 378.455323 173.220973 
L 378.504778 172.925917 
L 378.557471 173.010219 
L 378.606871 173.347426 
L 378.656271 173.136671 
L 378.705726 173.220973 
L 378.755126 172.968068 
L 378.804526 173.05237 
L 378.853926 173.178822 
L 378.903326 173.010219 
L 379.002181 172.883766 
L 379.051581 173.05237 
L 379.100981 172.673012 
L 379.199836 173.55818 
L 379.249236 172.883766 
L 379.298636 173.136671 
L 379.64449 172.841615 
L 379.79269 173.136671 
L 380.039745 172.925917 
L 380.089145 172.715162 
L 380.187945 173.010219 
L 380.237345 172.841615 
L 380.3362 173.136671 
L 380.435 173.010219 
L 380.5338 173.178822 
L 380.583255 173.010219 
L 380.632655 173.178822 
L 380.731455 173.09452 
L 380.830255 173.431727 
L 380.97851 172.883766 
L 381.080603 173.305275 
L 381.130003 173.220973 
L 381.179513 173.136671 
L 381.228968 173.347426 
L 381.278368 172.968068 
L 381.327768 173.05237 
L 381.525423 173.220973 
L 381.723078 172.841615 
L 381.920733 173.263124 
L 382.068988 172.968068 
L 382.167788 172.841615 
L 382.217188 173.178822 
L 382.266642 172.925917 
L 382.365442 173.010219 
L 382.464297 172.883766 
L 382.563097 173.473878 
L 382.760752 178.236927 
L 382.810152 178.068324 
L 382.909007 177.014552 
L 382.958407 177.267457 
L 383.007752 177.351759 
L 383.057152 177.098854 
L 383.106607 177.39391 
L 383.205407 176.93025 
L 383.304262 177.098854 
L 383.403062 177.183155 
L 383.452462 176.382289 
L 383.501917 176.466591 
L 383.551317 176.635194 
L 383.600717 176.593043 
L 383.699572 176.340138 
L 383.748972 176.508741 
L 383.798372 176.761647 
L 383.847772 176.382289 
L 383.946627 176.466591 
L 383.99696 176.42444 
L 384.144282 175.876478 
L 384.193682 175.792176 
L 384.243082 175.876478 
L 384.292482 176.255836 
L 384.341936 175.96078 
L 384.539591 175.834327 
L 384.588991 176.002931 
L 384.687791 174.99131 
L 384.737246 175.539271 
L 384.786591 175.159913 
L 384.885391 175.539271 
L 384.934791 175.328517 
L 384.984191 175.370668 
L 385.033646 175.244215 
L 385.083046 175.412819 
L 385.132446 175.370668 
L 385.181846 175.454969 
L 385.280646 174.654103 
L 385.330101 174.738405 
L 385.428901 174.569801 
L 385.577101 174.907008 
L 385.679249 174.569801 
L 385.728649 174.611952 
L 385.827449 174.485499 
L 385.876849 174.738405 
L 385.926249 174.654103 
L 386.074504 174.611952 
L 386.123904 174.780555 
L 386.173304 174.485499 
L 386.222704 174.822706 
L 386.272104 174.654103 
L 386.321559 174.99131 
L 386.370959 174.654103 
L 386.420359 174.654103 
L 386.469759 174.52765 
L 386.519159 174.569801 
L 386.568669 174.696254 
L 386.621417 174.569801 
L 386.720217 174.569801 
L 386.769617 174.654103 
L 386.819072 174.485499 
L 386.868472 174.52765 
L 386.917872 174.696254 
L 386.967272 174.569801 
L 387.016672 174.52765 
L 387.066127 174.780555 
L 387.164927 174.232594 
L 387.214327 174.401198 
L 387.263782 174.190443 
L 387.313182 174.232594 
" style="fill:none;stroke:#d62728;stroke-linecap:square;stroke-width:1.5;"/>
   </g>
   <g id="patch_7">
    <path d="M 44.66 303.64 
L 44.66 25.44 
" style="fill:none;stroke:#000000;stroke-linecap:square;stroke-linejoin:miter;stroke-width:0.8;"/>
   </g>
   <g id="patch_8">
    <path d="M 403.63 303.64 
L 403.63 25.44 
" style="fill:none;stroke:#000000;stroke-linecap:square;stroke-linejoin:miter;stroke-width:0.8;"/>
   </g>
   <g id="patch_9">
    <path d="M 44.66 303.64 
L 403.63 303.64 
" style="fill:none;stroke:#000000;stroke-linecap:square;stroke-linejoin:miter;stroke-width:0.8;"/>
   </g>
   <g id="patch_10">
    <path d="M 44.66 25.44 
L 403.63 25.44 
" style="fill:none;stroke:#000000;stroke-linecap:square;stroke-linejoin:miter;stroke-width:0.8;"/>
   </g>
  </g>
 </g>
 <defs>
  <clipPath id="pb57842cdb1">
   <rect height="278.2" width="358.97" x="44.66" y="25.44"/>
  </clipPath>
 </defs>
</svg>
